<svg height="512" viewBox="0 0 512 512" width="512" xmlns="http://www.w3.org/2000/svg"><g id="flat"><path d="m422.375 242.058-14.375-186.058a517.731 517.731 0 0 0 -304.676-2.2l-7.324 2.2-14.224 184.019a104.005 104.005 0 0 0 7.155 46.308l39.069 97.673 96 104h64l102.158-112 26.442-91.28a104.018 104.018 0 0 0 5.775-42.662zm-211.568-36.865a64.21 64.21 0 0 1 -45.407 18.807 64.211 64.211 0 0 1 -38.526-12.842l-14.874-11.158 14.877-11.158a64.211 64.211 0 0 1 38.523-12.842 64.21 64.21 0 0 1 45.4 18.807l5.2 5.193zm174.316 5.965a64.21 64.21 0 0 1 -83.93-5.965l-5.193-5.193 5.193-5.193a64.21 64.21 0 0 1 83.93-5.965l14.877 11.158z" fill="#ebebeb"/><g fill="#62666a"><path d="m232 408a75.893 75.893 0 0 1 0 48l24 32 24-32a75.893 75.893 0 0 1 0-48z"/><path d="m217.5 128.75-65.5-32.75-56 40 56-8 52.7 26.35a14.31 14.31 0 0 0 18.308-4.862 14.31 14.31 0 0 0 -5.508-20.738z"/><path d="m294.5 128.75 65.5-32.75 48 40-48-8-52.7 26.35a14.31 14.31 0 0 1 -18.308-4.862 14.31 14.31 0 0 1 5.508-20.738z"/></g><path d="m280 384h-48a8 8 0 0 1 -5.657-2.343l-13.685-13.686a8 8 0 0 1 11.313-11.313l11.342 11.342h41.374l11.342-11.342a8 8 0 0 1 11.313 11.313l-13.685 13.686a8 8 0 0 1 -5.657 2.343z" fill="#cbcbcb"/><path d="m91.467 300.665a8 8 0 0 1 -7.43-5.031 70.627 70.627 0 0 1 4.986-62.221l8.117-13.529a8 8 0 1 1 13.72 8.232l-8.117 13.529a54.535 54.535 0 0 0 -3.85 48.046 8.007 8.007 0 0 1 -7.426 10.974z" fill="#e2e2e2"/><path d="m412.533 300.665a8.007 8.007 0 0 1 -7.426-10.974 54.535 54.535 0 0 0 -3.85-48.046l-8.117-13.529a8 8 0 1 1 13.72-8.232l8.117 13.529a70.627 70.627 0 0 1 4.986 62.221 8 8 0 0 1 -7.43 5.031z" fill="#e2e2e2"/><path d="m304.01 76.933a8.076 8.076 0 0 1 -1.325-.11l-11.429-1.9a8 8 0 1 1 2.631-15.782l11.428 1.9a8 8 0 0 1 -1.305 15.892z" fill="#f9f9f9"/><path d="m207.99 76.933a8 8 0 0 1 -1.305-15.892l11.429-1.9a230.749 230.749 0 0 1 46.174-2.987 8 8 0 0 1 -.576 15.99 215.1 215.1 0 0 0 -42.968 2.779l-11.429 1.9a8.076 8.076 0 0 1 -1.325.11z" fill="#f9f9f9"/><path d="m232 312-32 24h-40l-24-40h-40l48 72h72l40-32z" fill="#62666a"/><path d="m280 312 32 24h40l24-40h38l-46 72h-72l-40-32z" fill="#62666a"/><path d="m300.654 277.769-12.654-8.436-16-40v-40a16 16 0 1 0 -32 0v40l-16 40-12.654 8.436a25.479 25.479 0 0 0 6.076 45.372l6.578 2.192a53.331 53.331 0 0 0 64 0l6.578-2.192a25.479 25.479 0 0 0 6.076-45.372z" fill="#cbcbcb"/><path d="m288 416h-72a8 8 0 0 1 -5.657-2.343l-24-24a8 8 0 0 1 11.314-11.314l21.656 21.657h65.374l21.656-21.657a8 8 0 0 1 11.314 11.314l-24 24a8 8 0 0 1 -5.657 2.343z" fill="#cbcbcb"/><path d="m210.807 205.193a64.21 64.21 0 0 1 -45.407 18.807 64.211 64.211 0 0 1 -38.526-12.842l-14.874-11.158 14.877-11.158a64.211 64.211 0 0 1 38.523-12.842 64.21 64.21 0 0 1 45.4 18.807l5.2 5.193z" fill="#878787"/><path d="m385.123 211.158a64.21 64.21 0 0 1 -83.93-5.965l-5.193-5.193 5.193-5.193a64.21 64.21 0 0 1 83.93-5.965l14.877 11.158z" fill="#878787"/></g></svg>