<svg id="Capa_1" enable-background="new 0 0 512 512" height="512" viewBox="0 0 512 512" width="512" xmlns="http://www.w3.org/2000/svg"><g><path d="m405.376 92.716v151.466h-61.811v-151.466c0-17.069-13.837-30.905-30.905-30.905h-113.32c-17.069 0-30.905 13.837-30.905 30.905v151.466h-61.811v-151.466c0-51.205 41.51-92.716 92.716-92.716h113.32c51.206 0 92.716 41.511 92.716 92.716z" fill="#cbe5e8"/><g fill="#a8d3d8"><path d="m137.529 92.716v151.466h30.905v-151.466c0-17.069 13.837-30.905 30.905-30.905h-30.905c-17.068 0-30.905 13.837-30.905 30.905z"/><path d="m312.66 0h-30.905c51.206 0 92.716 41.511 92.716 92.716v151.466h30.905v-151.466c0-51.205-41.51-92.716-92.716-92.716z"/></g><path d="m437.855 512h-363.71c-15.062 0-27.272-12.21-27.272-27.272v-246.269c0-15.062 12.21-27.272 27.272-27.272h363.71c15.062 0 27.272 12.21 27.272 27.272v246.269c0 15.062-12.21 27.272-27.272 27.272z" fill="#ffd15b"/><path d="m437.855 211.187h-30.905c15.062 0 27.272 12.21 27.272 27.272v246.269c0 15.062-12.21 27.272-27.272 27.272h30.905c15.062 0 27.272-12.21 27.272-27.272v-246.269c0-15.062-12.21-27.272-27.272-27.272z" fill="#ffc344"/><path d="m349.473 427.525h-186.946c-12.668 0-22.937-10.269-22.937-22.937v-85.988c0-12.668 10.269-22.937 22.937-22.937h186.946c12.668 0 22.937 10.269 22.937 22.937v85.988c0 12.668-10.269 22.937-22.937 22.937z" fill="#cbe5e8"/><path d="m349.473 295.662h-30.905c12.668 0 22.937 10.269 22.937 22.937v85.988c0 12.668-10.269 22.937-22.937 22.937h30.905c12.668 0 22.937-10.269 22.937-22.937v-85.988c0-12.668-10.269-22.937-22.937-22.937z" fill="#a8d3d8"/><g fill="#8ebac5"><path d="m172.04 314.438h-4.12c-4.143 0-7.5 3.358-7.5 7.5s3.357 7.5 7.5 7.5h4.12c4.143 0 7.5-3.358 7.5-7.5s-3.357-7.5-7.5-7.5z"/><path d="m339.96 329.438h4.12c4.143 0 7.5-3.358 7.5-7.5s-3.357-7.5-7.5-7.5h-4.12c-4.143 0-7.5 3.358-7.5 7.5s3.357 7.5 7.5 7.5z"/><path d="m172.04 393.75h-4.12c-4.143 0-7.5 3.358-7.5 7.5s3.357 7.5 7.5 7.5h4.12c4.143 0 7.5-3.358 7.5-7.5s-3.357-7.5-7.5-7.5z"/><path d="m344.08 393.75h-4.12c-4.143 0-7.5 3.358-7.5 7.5s3.357 7.5 7.5 7.5h4.12c4.143 0 7.5-3.358 7.5-7.5s-3.357-7.5-7.5-7.5z"/></g></g></svg>