<svg width="36" height="18" viewBox="0 0 36 18" fill="none" xmlns="http://www.w3.org/2000/svg">
<path d="M35.5875 7.97248L35.5863 7.9711L28.2383 0.422705C27.6879 -0.142771 26.7975 -0.140667 26.2495 0.42764C25.7017 0.995874 25.7038 1.91496 26.2543 2.48051L31.1877 7.54839H1.40625C0.629578 7.54839 0 8.19827 0 9C0 9.80173 0.629578 10.4516 1.40625 10.4516H31.1876L26.2543 15.5195C25.7038 16.085 25.7017 17.0041 26.2496 17.5724C26.7976 18.1407 27.688 18.1427 28.2384 17.5773L35.5863 10.0289L35.5876 10.0275C36.1384 9.46009 36.1366 8.53802 35.5875 7.97248Z" fill="#383838"/>
</svg>
