<svg width="36" height="18" viewBox="0 0 36 18" fill="none" xmlns="http://www.w3.org/2000/svg">
<path d="M0.412472 7.97248L0.413734 7.9711L7.76167 0.422705C8.31215 -0.142771 9.20251 -0.140667 9.75046 0.42764C10.2983 0.995874 10.2962 1.91496 9.74575 2.48051L4.81234 7.54839H34.5938C35.3704 7.54839 36 8.19827 36 9C36 9.80173 35.3704 10.4516 34.5938 10.4516H4.81241L9.74568 15.5195C10.2962 16.085 10.2983 17.0041 9.75039 17.5724C9.20244 18.1407 8.31201 18.1427 7.7616 17.5773L0.413666 10.0289L0.412399 10.0275C-0.138359 9.46009 -0.1366 8.53802 0.412472 7.97248Z" fill="#383838"/>
</svg>
