<svg width="213" height="46" viewBox="0 0 213 46" fill="none" xmlns="http://www.w3.org/2000/svg">
<g clip-path="url(#clip0)">
<path d="M23.7812 23.9297V24.4297H24.2812V23.9297H23.7812ZM9.46094 23.9297V23.4297H8.96094V23.9297H9.46094ZM9.46094 39V39.5H9.96094V39H9.46094ZM4.96094 39H4.46094V39.5H4.96094V39ZM4.96094 4.875V4.375H4.46094V4.875H4.96094ZM26.1016 4.875H26.6016V4.375H26.1016V4.875ZM26.1016 8.57812V9.07812H26.6016V8.57812H26.1016ZM9.46094 8.57812V8.07812H8.96094V8.57812H9.46094ZM9.46094 20.25H8.96094V20.75H9.46094V20.25ZM23.7812 20.25H24.2812V19.75H23.7812V20.25ZM23.7812 23.4297H9.46094V24.4297H23.7812V23.4297ZM8.96094 23.9297V39H9.96094V23.9297H8.96094ZM9.46094 38.5H4.96094V39.5H9.46094V38.5ZM5.46094 39V4.875H4.46094V39H5.46094ZM4.96094 5.375H26.1016V4.375H4.96094V5.375ZM25.6016 4.875V8.57812H26.6016V4.875H25.6016ZM26.1016 8.07812H9.46094V9.07812H26.1016V8.07812ZM8.96094 8.57812V20.25H9.96094V8.57812H8.96094ZM9.46094 20.75H23.7812V19.75H9.46094V20.75ZM23.2812 20.25V23.9297H24.2812V20.25H23.2812ZM30.6016 19.3828L30.1536 19.1606L30.1522 19.1635L30.6016 19.3828ZM34.6797 14.7891L34.4174 14.3634L34.4157 14.3644L34.6797 14.7891ZM49.0234 16.7578L48.6497 17.09L48.6509 17.0914L49.0234 16.7578ZM50.8047 33.2578L50.3547 33.0399L50.3539 33.0414L50.8047 33.2578ZM46.75 37.8281L46.4867 37.4031L46.485 37.4041L46.75 37.8281ZM32.3359 35.8828L31.9622 36.215L31.9634 36.2164L32.3359 35.8828ZM35.4531 33.375L35.0553 33.6779L35.0571 33.6802L35.4531 33.375ZM45.9531 33.3516L46.3523 33.6527L46.3536 33.651L45.9531 33.3516ZM45.9062 19.3359L45.5075 19.6377L45.5106 19.6417L45.9062 19.3359ZM29.6484 26.0859C29.6484 23.668 30.1194 21.5101 31.0509 19.6022L30.1522 19.1635C29.1462 21.2243 28.6484 23.5351 28.6484 26.0859H29.6484ZM31.0495 19.605C31.9962 17.6966 33.2949 16.2386 34.9437 15.2137L34.4157 14.3644C32.5957 15.4958 31.1757 17.1003 30.1536 19.1606L31.0495 19.605ZM34.9419 15.2148C36.6063 14.1894 38.5061 13.6719 40.6562 13.6719V12.6719C38.3376 12.6719 36.2531 13.2325 34.4174 14.3634L34.9419 15.2148ZM40.6562 13.6719C43.9794 13.6719 46.6278 14.8153 48.6497 17.09L49.3971 16.4256C47.1691 13.9191 44.2394 12.6719 40.6562 12.6719V13.6719ZM48.6509 17.0914C50.6912 19.3699 51.7344 22.4208 51.7344 26.2969H52.7344C52.7344 22.2354 51.6369 18.927 49.3959 16.4243L48.6509 17.0914ZM51.7344 26.2969V26.6016H52.7344V26.2969H51.7344ZM51.7344 26.6016C51.7344 29.0046 51.2709 31.1474 50.3547 33.0399L51.2547 33.4757C52.2447 31.4307 52.7344 29.136 52.7344 26.6016H51.7344ZM50.3539 33.0414C49.4558 34.9124 48.1676 36.3618 46.4867 37.4031L47.0133 38.2532C48.8637 37.1069 50.2785 35.5094 51.2554 33.4742L50.3539 33.0414ZM46.485 37.4041C44.8227 38.4431 42.9009 38.9688 40.7031 38.9688V39.9688C43.0679 39.9688 45.1773 39.4007 47.015 38.2521L46.485 37.4041ZM40.7031 38.9688C37.3964 38.9688 34.7469 37.8258 32.7084 35.5493L31.9634 36.2164C34.2063 38.7211 37.1349 39.9688 40.7031 39.9688V38.9688ZM32.7096 35.5506C30.6837 33.2714 29.6484 30.2352 29.6484 26.3906H28.6484C28.6484 30.4211 29.7382 33.713 31.9622 36.215L32.7096 35.5506ZM29.6484 26.3906V26.0859H28.6484V26.3906H29.6484ZM33.0078 26.6016C33.0078 29.4892 33.674 31.8639 35.0553 33.6779L35.8509 33.0721C34.6385 31.4799 34.0078 29.339 34.0078 26.6016H33.0078ZM35.0571 33.6802C36.4662 35.5086 38.3637 36.4297 40.7031 36.4297V35.4297C38.6675 35.4297 37.0651 34.6476 35.8492 33.0698L35.0571 33.6802ZM40.7031 36.4297C43.0588 36.4297 44.9583 35.5001 46.3523 33.6527L45.554 33.0504C44.3542 34.6406 42.7537 35.4297 40.7031 35.4297V36.4297ZM46.3536 33.651C47.7378 31.7997 48.3984 29.2578 48.3984 26.0859H47.3984C47.3984 29.1328 46.7622 31.4346 45.5527 33.0521L46.3536 33.651ZM48.3984 26.0859C48.3984 23.2254 47.7146 20.8585 46.3019 19.0302L45.5106 19.6417C46.7541 21.2509 47.3984 23.384 47.3984 26.0859H48.3984ZM46.305 19.0342C44.8973 17.1741 42.9993 16.2344 40.6562 16.2344V17.2344C42.6882 17.2344 44.2902 18.029 45.5075 19.6377L46.305 19.0342ZM40.6562 16.2344C38.3597 16.2344 36.4872 17.1585 35.0805 18.9839L35.8726 19.5943C37.0909 18.0133 38.6715 17.2344 40.6562 17.2344V16.2344ZM35.0805 18.9839C33.6753 20.8074 33.0078 23.3696 33.0078 26.6016H34.0078C34.0078 23.4898 34.6529 21.177 35.8726 19.5943L35.0805 18.9839ZM57.9766 19.3828L57.5286 19.1606L57.5272 19.1635L57.9766 19.3828ZM62.0547 14.7891L61.7924 14.3634L61.7907 14.3644L62.0547 14.7891ZM76.3984 16.7578L76.0247 17.09L76.0259 17.0914L76.3984 16.7578ZM78.1797 33.2578L77.7297 33.0399L77.7289 33.0414L78.1797 33.2578ZM74.125 37.8281L73.8617 37.4031L73.86 37.4041L74.125 37.8281ZM59.7109 35.8828L59.3372 36.215L59.3384 36.2164L59.7109 35.8828ZM62.8281 33.375L62.4303 33.6779L62.4321 33.6802L62.8281 33.375ZM73.3281 33.3516L73.7273 33.6527L73.7286 33.651L73.3281 33.3516ZM73.2812 19.3359L72.8825 19.6377L72.8856 19.6417L73.2812 19.3359ZM57.0234 26.0859C57.0234 23.668 57.4944 21.5101 58.4259 19.6022L57.5272 19.1635C56.5212 21.2243 56.0234 23.5351 56.0234 26.0859H57.0234ZM58.4245 19.605C59.3712 17.6966 60.6699 16.2386 62.3187 15.2137L61.7907 14.3644C59.9707 15.4958 58.5507 17.1003 57.5286 19.1606L58.4245 19.605ZM62.3169 15.2148C63.9813 14.1894 65.8811 13.6719 68.0312 13.6719V12.6719C65.7126 12.6719 63.6281 13.2325 61.7924 14.3634L62.3169 15.2148ZM68.0312 13.6719C71.3544 13.6719 74.0028 14.8153 76.0247 17.09L76.7721 16.4256C74.5441 13.9191 71.6144 12.6719 68.0312 12.6719V13.6719ZM76.0259 17.0914C78.0662 19.3699 79.1094 22.4208 79.1094 26.2969H80.1094C80.1094 22.2354 79.0119 18.927 76.7709 16.4243L76.0259 17.0914ZM79.1094 26.2969V26.6016H80.1094V26.2969H79.1094ZM79.1094 26.6016C79.1094 29.0046 78.6459 31.1474 77.7297 33.0399L78.6297 33.4757C79.6197 31.4307 80.1094 29.136 80.1094 26.6016H79.1094ZM77.7289 33.0414C76.8308 34.9124 75.5426 36.3618 73.8617 37.4031L74.3883 38.2532C76.2387 37.1069 77.6535 35.5094 78.6304 33.4742L77.7289 33.0414ZM73.86 37.4041C72.1977 38.4431 70.2759 38.9688 68.0781 38.9688V39.9688C70.4429 39.9688 72.5523 39.4007 74.39 38.2521L73.86 37.4041ZM68.0781 38.9688C64.7714 38.9688 62.1219 37.8258 60.0834 35.5493L59.3384 36.2164C61.5813 38.7211 64.5099 39.9688 68.0781 39.9688V38.9688ZM60.0846 35.5506C58.0587 33.2714 57.0234 30.2352 57.0234 26.3906H56.0234C56.0234 30.4211 57.1132 33.713 59.3372 36.215L60.0846 35.5506ZM57.0234 26.3906V26.0859H56.0234V26.3906H57.0234ZM60.3828 26.6016C60.3828 29.4892 61.049 31.8639 62.4303 33.6779L63.2259 33.0721C62.0135 31.4799 61.3828 29.339 61.3828 26.6016H60.3828ZM62.4321 33.6802C63.8412 35.5086 65.7387 36.4297 68.0781 36.4297V35.4297C66.0425 35.4297 64.4401 34.6476 63.2242 33.0698L62.4321 33.6802ZM68.0781 36.4297C70.4338 36.4297 72.3333 35.5001 73.7273 33.6527L72.929 33.0504C71.7292 34.6406 70.1287 35.4297 68.0781 35.4297V36.4297ZM73.7286 33.651C75.1128 31.7997 75.7734 29.2578 75.7734 26.0859H74.7734C74.7734 29.1328 74.1372 31.4346 72.9277 33.0521L73.7286 33.651ZM75.7734 26.0859C75.7734 23.2254 75.0896 20.8585 73.6769 19.0302L72.8856 19.6417C74.1291 21.2509 74.7734 23.384 74.7734 26.0859H75.7734ZM73.68 19.0342C72.2723 17.1741 70.3743 16.2344 68.0312 16.2344V17.2344C70.0632 17.2344 71.6652 18.029 72.8825 19.6377L73.68 19.0342ZM68.0312 16.2344C65.7347 16.2344 63.8622 17.1585 62.4555 18.9839L63.2476 19.5943C64.4659 18.0133 66.0465 17.2344 68.0312 17.2344V16.2344ZM62.4555 18.9839C61.0503 20.8074 60.3828 23.3696 60.3828 26.6016H61.3828C61.3828 23.4898 62.0279 21.177 63.2476 19.5943L62.4555 18.9839ZM86.7578 16.7344L87.1518 17.0422L87.1528 17.041L86.7578 16.7344ZM101.055 16.2188L100.674 16.5434L101.555 17.5743V16.2188H101.055ZM101.055 3V2.5H100.555V3H101.055ZM105.391 3H105.891V2.5H105.391V3ZM105.391 39V39.5H105.891V39H105.391ZM101.406 39L100.908 39.0387L100.944 39.5H101.406V39ZM101.195 36.2812L101.694 36.2426L101.597 34.998L100.808 35.9651L101.195 36.2812ZM86.7578 35.8594L86.3609 36.1635L86.3622 36.1651L86.7578 35.8594ZM101.055 32.0859L101.5 32.314L101.555 32.2066V32.0859H101.055ZM101.055 20.4375H101.555V20.3106L101.494 20.1991L101.055 20.4375ZM84.4922 26.1094C84.4922 22.2967 85.3949 19.2904 87.1518 17.0422L86.3638 16.4265C84.4332 18.8971 83.4922 22.1408 83.4922 26.1094H84.4922ZM87.1528 17.041C88.9026 14.7869 91.1714 13.6719 94 13.6719V12.6719C90.8598 12.6719 88.3005 13.9318 86.3629 16.4278L87.1528 17.041ZM94 13.6719C96.8408 13.6719 99.0464 14.6367 100.674 16.5434L101.435 15.8941C99.5943 13.7383 97.0967 12.6719 94 12.6719V13.6719ZM101.555 16.2188V3H100.555V16.2188H101.555ZM101.055 3.5H105.391V2.5H101.055V3.5ZM104.891 3V39H105.891V3H104.891ZM105.391 38.5H101.406V39.5H105.391V38.5ZM101.905 38.9613L101.694 36.2426L100.697 36.3199L100.908 39.0387L101.905 38.9613ZM100.808 35.9651C99.1814 37.9579 96.9184 38.9688 93.9531 38.9688V39.9688C97.1754 39.9688 99.7404 38.8546 101.583 36.5974L100.808 35.9651ZM93.9531 38.9688C91.1767 38.9688 88.922 37.8424 87.1535 35.5537L86.3622 36.1651C88.3123 38.6888 90.8545 39.9688 93.9531 39.9688V38.9688ZM87.1547 35.5553C85.3945 33.258 84.4922 30.2335 84.4922 26.4375H83.4922C83.4922 30.3915 84.4337 33.6482 86.3609 36.1635L87.1547 35.5553ZM84.4922 26.4375V26.1094H83.4922V26.4375H84.4922ZM87.8281 26.6016C87.8281 29.5387 88.4339 31.9062 89.7057 33.6466L90.5131 33.0566C89.4098 31.5469 88.8281 29.4144 88.8281 26.6016H87.8281ZM89.7057 33.6466C90.9917 35.4064 92.7855 36.2891 95.0312 36.2891V35.2891C93.0895 35.2891 91.602 34.5467 90.5131 33.0566L89.7057 33.6466ZM95.0312 36.2891C96.483 36.2891 97.7665 35.9624 98.8615 35.2892C99.9562 34.6162 100.833 33.6153 101.5 32.314L100.61 31.8578C100.011 33.0253 99.2508 33.876 98.3377 34.4373C97.425 34.9985 96.3295 35.2891 95.0312 35.2891V36.2891ZM101.555 32.0859V20.4375H100.555V32.0859H101.555ZM101.494 20.1991C100.81 18.9387 99.9301 17.9703 98.8451 17.3193C97.7598 16.6681 96.4981 16.3516 95.0781 16.3516V17.3516C96.3457 17.3516 97.4238 17.6327 98.3306 18.1768C99.2378 18.7211 100.002 19.5456 100.615 20.6759L101.494 20.1991ZM95.0781 16.3516C92.802 16.3516 90.9912 17.2414 89.7043 19.0193L90.5144 19.6057C91.6026 18.1023 93.1042 17.3516 95.0781 17.3516V16.3516ZM89.7043 19.0193C88.4283 20.7822 87.8281 23.3349 87.8281 26.6016H88.8281C88.8281 23.4307 89.4154 21.124 90.5144 19.6057L89.7043 19.0193ZM112.891 34.8516L112.52 34.5158L112.514 34.5223L112.891 34.8516ZM116.922 34.8516L116.551 35.1874L116.557 35.1935L116.922 34.8516ZM116.922 38.5312L116.563 38.1835L116.557 38.1897L116.922 38.5312ZM112.891 38.5312L112.52 38.8664L112.525 38.8728L112.891 38.5312ZM112.734 36.7266C112.734 36.081 112.92 35.5779 113.267 35.1808L112.514 34.5223C111.987 35.1253 111.734 35.8721 111.734 36.7266H112.734ZM113.261 35.1873C113.592 34.8226 114.109 34.6016 114.906 34.6016V33.6016C113.922 33.6016 113.096 33.8805 112.52 34.5158L113.261 35.1873ZM114.906 34.6016C115.703 34.6016 116.221 34.8226 116.551 35.1873L117.292 34.5158C116.717 33.8805 115.89 33.6016 114.906 33.6016V34.6016ZM116.557 35.1935C116.93 35.5918 117.125 36.0905 117.125 36.7266H118.125C118.125 35.8626 117.851 35.1114 117.287 34.5096L116.557 35.1935ZM117.125 36.7266C117.125 37.325 116.935 37.799 116.563 38.1835L117.281 38.879C117.847 38.2947 118.125 37.5656 118.125 36.7266H117.125ZM116.557 38.1897C116.227 38.5418 115.708 38.7578 114.906 38.7578V39.7578C115.886 39.7578 116.71 39.4894 117.287 38.8728L116.557 38.1897ZM114.906 38.7578C114.105 38.7578 113.585 38.5418 113.256 38.1897L112.525 38.8728C113.102 39.4894 113.927 39.7578 114.906 39.7578V38.7578ZM113.262 38.1961C112.916 37.8132 112.734 37.335 112.734 36.7266H111.734C111.734 37.5556 111.99 38.2805 112.52 38.8664L113.262 38.1961ZM150.578 28.1719L151.075 28.2299L151.14 27.6719H150.578V28.1719ZM146.57 36.5391L146.899 36.9155L146.9 36.9154L146.57 36.5391ZM127.938 35.1328L127.554 35.4539L127.555 35.4551L127.938 35.1328ZM125.992 11.8828L125.54 11.6686L125.539 11.671L125.992 11.8828ZM130.82 6.35156L131.083 6.77718L131.085 6.77574L130.82 6.35156ZM146.758 7.45312L146.418 7.81952L146.419 7.82083L146.758 7.45312ZM150.578 15.8438V16.3438H151.131L151.076 15.7938L150.578 15.8438ZM146.055 15.8438L145.56 15.9149L145.621 16.3438H146.055V15.8438ZM143.5 9.9375L143.158 10.3019L143.16 10.3039L143.5 9.9375ZM131.266 11.2969L130.87 10.9913L130.868 10.9931L131.266 11.2969ZM143.383 34.1016L143.706 34.4831L143.706 34.4828L143.383 34.1016ZM146.055 28.1719V27.6719H145.626L145.561 28.095L146.055 28.1719ZM150.082 28.1138C149.671 31.6279 148.379 34.2924 146.241 36.1628L146.9 36.9154C149.262 34.8482 150.642 31.9346 151.075 28.2299L150.082 28.1138ZM146.241 36.1626C144.119 38.0174 141.27 38.9688 137.641 38.9688V39.9688C141.449 39.9688 144.553 38.9669 146.899 36.9155L146.241 36.1626ZM137.641 38.9688C133.746 38.9688 130.655 37.5802 128.32 34.8105L127.555 35.4551C130.095 38.4667 133.473 39.9688 137.641 39.9688V38.9688ZM128.321 34.8117C125.994 32.0341 124.805 28.2916 124.805 23.5312H123.805C123.805 28.4584 125.038 32.4502 127.554 35.4539L128.321 34.8117ZM124.805 23.5312V20.25H123.805V23.5312H124.805ZM124.805 20.25C124.805 17.1373 125.357 14.4229 126.445 12.0946L125.539 11.671C124.378 14.1552 123.805 17.019 123.805 20.25H124.805ZM126.444 12.097C127.547 9.76978 129.094 8.00313 131.083 6.77717L130.558 5.92595C128.39 7.26249 126.718 9.18334 125.54 11.6686L126.444 12.097ZM131.085 6.77574C133.075 5.53404 135.387 4.90625 138.039 4.90625V3.90625C135.222 3.90625 132.722 4.57534 130.556 5.92738L131.085 6.77574ZM138.039 4.90625C141.566 4.90625 144.342 5.89176 146.418 7.81952L147.098 7.08673C144.799 4.95199 141.762 3.90625 138.039 3.90625V4.90625ZM146.419 7.82083C148.499 9.73699 149.731 12.4107 150.081 15.8937L151.076 15.7938C150.707 12.1206 149.392 9.20051 147.097 7.08542L146.419 7.82083ZM150.578 15.3438H146.055V16.3438H150.578V15.3438ZM146.55 15.7726C146.151 12.9981 145.271 10.8997 143.84 9.5711L143.16 10.3039C144.354 11.4128 145.177 13.2519 145.56 15.9149L146.55 15.7726ZM143.842 9.57314C142.426 8.2425 140.469 7.60938 138.039 7.60938V8.60938C140.297 8.60938 141.98 9.195 143.158 10.3019L143.842 9.57314ZM138.039 7.60938C135.022 7.60938 132.613 8.73397 130.87 10.9913L131.661 11.6024C133.2 9.60978 135.306 8.60938 138.039 8.60938V7.60938ZM130.868 10.9931C129.152 13.2377 128.328 16.3847 128.328 20.3672H129.328C129.328 16.5059 130.129 13.6061 131.663 11.6006L130.868 10.9931ZM128.328 20.3672V23.6719H129.328V20.3672H128.328ZM128.328 23.6719C128.328 27.4399 129.115 30.4978 130.74 32.7965L131.557 32.2191C130.088 30.1428 129.328 27.3101 129.328 23.6719H128.328ZM130.74 32.7965C132.385 35.1224 134.704 36.2891 137.641 36.2891V35.2891C135.014 35.2891 133.006 34.2682 131.557 32.2191L130.74 32.7965ZM137.641 36.2891C140.208 36.2891 142.255 35.712 143.706 34.4831L143.06 33.72C141.854 34.7412 140.073 35.2891 137.641 35.2891V36.2891ZM143.706 34.4828C145.183 33.229 146.103 31.1114 146.549 28.2487L145.561 28.095C145.131 30.8574 144.27 32.6929 143.059 33.7204L143.706 34.4828ZM146.055 28.6719H150.578V27.6719H146.055V28.6719ZM171.719 39L171.272 39.2236L171.41 39.5H171.719V39ZM171.109 36.3281L171.606 36.2676L171.478 35.2238L170.749 35.9814L171.109 36.3281ZM157.727 37.3594L157.394 37.7325L157.398 37.7359L157.727 37.3594ZM158.336 25.8281L158.63 26.2326L158.63 26.2322L158.336 25.8281ZM171.039 23.625V24.125H171.539V23.625H171.039ZM169.68 18.0234L169.326 18.377L169.329 18.3801L169.68 18.0234ZM160.211 20.6719V21.1719H160.711V20.6719H160.211ZM155.852 20.6719H155.352V21.1719H155.852V20.6719ZM157.188 17.0156L156.79 16.7123L156.789 16.7131L157.188 17.0156ZM160.844 14.2031L160.641 13.7462L160.639 13.747L160.844 14.2031ZM172.797 15.375L172.465 15.7491L172.467 15.7508L172.797 15.375ZM175.375 21.3984L175.875 21.3984L175.875 21.3862L175.375 21.3984ZM176.266 38.625H176.766V38.5217L176.725 38.4268L176.266 38.625ZM176.266 39V39.5H176.766V39H176.266ZM171.039 31.8984L171.489 32.117L171.539 32.0135V31.8984H171.039ZM171.039 26.6953H171.539V26.1953H171.039V26.6953ZM172.166 38.7764C171.958 38.3607 171.762 37.5469 171.606 36.2676L170.613 36.3887C170.77 37.6718 170.979 38.6393 171.272 39.2236L172.166 38.7764ZM170.749 35.9814C168.824 37.9815 166.546 38.9688 163.891 38.9688V39.9688C166.829 39.9688 169.364 38.8623 171.47 36.6749L170.749 35.9814ZM163.891 38.9688C161.49 38.9688 159.559 38.2963 158.056 36.9829L157.398 37.7359C159.113 39.235 161.291 39.9688 163.891 39.9688V38.9688ZM158.059 36.9863C156.574 35.6611 155.836 34.0009 155.836 31.9688H154.836C154.836 34.2804 155.692 36.2139 157.394 37.7325L158.059 36.9863ZM155.836 31.9688C155.836 29.4754 156.769 27.5844 158.63 26.2326L158.042 25.4236C155.903 26.9781 154.836 29.1808 154.836 31.9688H155.836ZM158.63 26.2322C160.529 24.8485 163.239 24.125 166.82 24.125V23.125C163.12 23.125 160.174 23.8702 158.041 25.424L158.63 26.2322ZM166.82 24.125H171.039V23.125H166.82V24.125ZM171.539 23.625V21.6328H170.539V23.625H171.539ZM171.539 21.6328C171.539 20.0109 171.05 18.6693 170.03 17.6668L169.329 18.3801C170.122 19.1588 170.539 20.2235 170.539 21.6328H171.539ZM170.033 17.6699C169.002 16.639 167.519 16.1641 165.672 16.1641V17.1641C167.356 17.1641 168.544 17.5953 169.326 18.377L170.033 17.6699ZM165.672 16.1641C164.038 16.1641 162.631 16.5782 161.482 17.4352L162.08 18.2367C163.026 17.5311 164.212 17.1641 165.672 17.1641V16.1641ZM161.482 17.4352C160.334 18.2919 159.711 19.3755 159.711 20.6719H160.711C160.711 19.7495 161.134 18.9425 162.08 18.2367L161.482 17.4352ZM160.211 20.1719H155.852V21.1719H160.211V20.1719ZM156.352 20.6719C156.352 19.5327 156.75 18.4178 157.586 17.3182L156.789 16.7131C155.844 17.9572 155.352 19.2798 155.352 20.6719H156.352ZM157.585 17.319C158.435 16.2055 159.584 15.3169 161.049 14.6593L160.639 13.747C159.041 14.4643 157.753 15.4508 156.79 16.7123L157.585 17.319ZM161.047 14.66C162.524 14.0034 164.15 13.6719 165.93 13.6719V12.6719C164.022 12.6719 162.257 13.0279 160.641 13.7462L161.047 14.66ZM165.93 13.6719C168.769 13.6719 170.926 14.3845 172.465 15.7491L173.129 15.0009C171.355 13.428 168.934 12.6719 165.93 12.6719V13.6719ZM172.467 15.7508C174.001 17.0966 174.815 18.9628 174.875 21.4106L175.875 21.3862C175.81 18.7091 174.905 16.5597 173.127 14.9992L172.467 15.7508ZM174.875 21.3984V33.0703H175.875V21.3984H174.875ZM174.875 33.0703C174.875 35.4328 175.175 37.3607 175.807 38.8232L176.725 38.4268C176.169 37.1393 175.875 35.3641 175.875 33.0703H174.875ZM175.766 38.625V39H176.766V38.625H175.766ZM176.266 38.5H171.719V39.5H176.266V38.5ZM164.523 36.1953C165.974 36.1953 167.349 35.8191 168.64 35.0737L168.141 34.2075C166.995 34.8684 165.792 35.1953 164.523 35.1953V36.1953ZM168.64 35.0737C169.935 34.3271 170.893 33.3429 171.489 32.117L170.589 31.6798C170.092 32.704 169.284 33.5479 168.141 34.2075L168.64 35.0737ZM171.539 31.8984V26.6953H170.539V31.8984H171.539ZM171.039 26.1953H167.641V27.1953H171.039V26.1953ZM167.641 26.1953C164.952 26.1953 162.853 26.5858 161.411 27.4298C159.928 28.298 159.172 29.6294 159.172 31.3594H160.172C160.172 29.98 160.744 28.9794 161.917 28.2928C163.131 27.5821 165.017 27.1953 167.641 27.1953V26.1953ZM159.172 31.3594C159.172 32.842 159.673 34.0537 160.709 34.9288L161.354 34.1649C160.577 33.5088 160.172 32.5955 160.172 31.3594H159.172ZM160.709 34.9288C161.722 35.7851 163.008 36.1953 164.523 36.1953V35.1953C163.195 35.1953 162.153 34.8399 161.354 34.1649L160.709 34.9288ZM194.43 17.5312L194.347 18.0244L194.93 18.1215V17.5312H194.43ZM186.508 21L186.047 20.8066L186.008 20.8994V21H186.508ZM186.508 39V39.5H187.008V39H186.508ZM182.172 39H181.672V39.5H182.172V39ZM182.172 13.6406V13.1406H181.672V13.6406H182.172ZM186.391 13.6406L186.89 13.6286L186.879 13.1406H186.391V13.6406ZM186.461 16.5703L185.961 16.5823L186.001 18.2439L186.884 16.8361L186.461 16.5703ZM194.43 13.5H194.93V13.191L194.653 13.0528L194.43 13.5ZM194.512 17.0381C193.825 16.9235 193.086 16.8672 192.297 16.8672V17.8672C193.039 17.8672 193.722 17.9202 194.347 18.0244L194.512 17.0381ZM192.297 16.8672C190.804 16.8672 189.513 17.1854 188.451 17.8519C187.386 18.5202 186.588 19.5157 186.047 20.8066L186.969 21.1934C187.443 20.0624 188.118 19.2416 188.983 18.6989C189.85 18.1545 190.946 17.8672 192.297 17.8672V16.8672ZM186.008 21V39H187.008V21H186.008ZM186.508 38.5H182.172V39.5H186.508V38.5ZM182.672 39V13.6406H181.672V39H182.672ZM182.172 14.1406H186.391V13.1406H182.172V14.1406ZM185.891 13.6526L185.961 16.5823L186.961 16.5583L186.89 13.6286L185.891 13.6526ZM186.884 16.8361C188.218 14.7118 190.076 13.6719 192.508 13.6719V12.6719C189.721 12.6719 187.548 13.8976 186.037 16.3045L186.884 16.8361ZM192.508 13.6719C193.323 13.6719 193.871 13.7798 194.206 13.9472L194.653 13.0528C194.113 12.7827 193.381 12.6719 192.508 12.6719V13.6719ZM193.93 13.5V17.5312H194.93V13.5H193.93ZM205.492 7.5H205.992V7H205.492V7.5ZM205.492 13.6406H204.992V14.1406H205.492V13.6406ZM210.227 13.6406H210.727V13.1406H210.227V13.6406ZM210.227 16.9922V17.4922H210.727V16.9922H210.227ZM205.492 16.9922V16.4922H204.992V16.9922H205.492ZM206.125 35.0156L205.738 35.3323L205.743 35.3381L206.125 35.0156ZM210.344 35.4844H210.844V34.8659L210.239 34.9955L210.344 35.4844ZM210.344 39L210.476 39.4822L210.844 39.3814V39H210.344ZM201.156 16.9922H201.656V16.4922H201.156V16.9922ZM196.539 16.9922H196.039V17.4922H196.539V16.9922ZM196.539 13.6406V13.1406H196.039V13.6406H196.539ZM201.156 13.6406V14.1406H201.656V13.6406H201.156ZM201.156 7.5V7H200.656V7.5H201.156ZM204.992 7.5V13.6406H205.992V7.5H204.992ZM205.492 14.1406H210.227V13.1406H205.492V14.1406ZM209.727 13.6406V16.9922H210.727V13.6406H209.727ZM210.227 16.4922H205.492V17.4922H210.227V16.4922ZM204.992 16.9922V32.7188H205.992V16.9922H204.992ZM204.992 32.7188C204.992 33.792 205.213 34.691 205.738 35.3322L206.512 34.699C206.193 34.309 205.992 33.6767 205.992 32.7188H204.992ZM205.743 35.3381C206.302 36.0008 207.2 36.2656 208.281 36.2656V35.2656C207.331 35.2656 206.792 35.0304 206.507 34.6932L205.743 35.3381ZM208.281 36.2656C208.834 36.2656 209.562 36.1633 210.449 35.9733L210.239 34.9955C209.376 35.1804 208.729 35.2656 208.281 35.2656V36.2656ZM209.844 35.4844V39H210.844V35.4844H209.844ZM210.212 38.5178C209.11 38.8196 208.045 38.9688 207.016 38.9688V39.9688C208.142 39.9688 209.296 39.8054 210.476 39.4822L210.212 38.5178ZM207.016 38.9688C205.183 38.9688 203.881 38.4192 203.016 37.3893L202.25 38.0325C203.354 39.3465 204.973 39.9688 207.016 39.9688V38.9688ZM203.016 37.3893C202.133 36.3382 201.656 34.8049 201.656 32.7188H200.656C200.656 34.9451 201.164 36.7399 202.25 38.0325L203.016 37.3893ZM201.656 32.7188V16.9922H200.656V32.7188H201.656ZM201.156 16.4922H196.539V17.4922H201.156V16.4922ZM197.039 16.9922V13.6406H196.039V16.9922H197.039ZM196.539 14.1406H201.156V13.1406H196.539V14.1406ZM201.656 13.6406V7.5H200.656V13.6406H201.656ZM201.156 8H205.492V7H201.156V8Z" fill="#383838"/>
</g>
<defs>
<clipPath id="clip0">
<rect width="213" height="46" fill="white"/>
</clipPath>
</defs>
</svg>
