<svg width="76" height="60" viewBox="0 0 76 60" fill="none" xmlns="http://www.w3.org/2000/svg">
<g clip-path="url(#clip0)">
<path d="M54.1945 16.2595C54.1976 19.1572 53.4226 22.0026 51.9504 24.4985C51.9504 24.4985 46.2875 26.4963 37.9367 26.4963C29.5858 26.4963 23.923 24.4985 23.923 24.4985C22.6567 22.3442 21.9041 19.927 21.7237 17.4346C21.5432 14.9423 21.9397 12.4419 22.8824 10.1276C23.8252 7.8134 25.2887 5.74765 27.1594 4.09083C29.03 2.43402 31.2574 1.23076 33.6686 0.574512C36.0798 -0.0817354 38.6098 -0.173299 41.0621 0.306934C43.5144 0.787166 45.823 1.82627 47.8085 3.34352C49.794 4.86077 51.403 6.81533 52.5106 9.05536C53.6181 11.2954 54.1944 13.7606 54.1945 16.2595Z" fill="#FF6A00"/>
<path d="M45.2196 18.0867C45.2196 17.9674 45.1722 17.853 45.0879 17.7686C45.0035 17.6843 44.8891 17.6369 44.7698 17.6369H43.8857V7.36908V6.59682C43.8857 6.47753 43.8383 6.36313 43.754 6.27878C43.6696 6.19442 43.5552 6.14704 43.4359 6.14704H35.2517C35.0066 6.14704 34.7757 6.14704 34.5484 6.14704C34.3479 6.14068 34.1475 6.16352 33.9535 6.21486C33.7917 6.2552 33.6465 6.34506 33.5382 6.47188C33.4248 6.63151 33.369 6.82493 33.3799 7.02044V8.21035C33.3799 8.60699 33.374 9.03973 33.3621 9.50856C33.349 9.97381 33.3204 12.3013 33.2752 12.7868C33.23 13.2723 33.1646 13.7542 33.0789 14.2313C32.9969 14.6918 32.8795 15.1454 32.7279 15.5878C32.5885 15.9994 32.4028 16.3938 32.1746 16.7635C32.0108 17.0283 31.8105 17.2687 31.5796 17.4774C31.4718 17.5734 31.3389 17.6366 31.1964 17.6595C31.0734 17.678 30.9555 17.7217 30.8502 17.788C30.7145 17.8784 30.6479 18.07 30.6479 18.3639V22.3275V22.3335C30.6479 22.4528 30.6953 22.5672 30.7796 22.6515C30.864 22.7359 30.9784 22.7833 31.0977 22.7833H33.7357C33.855 22.7833 33.9694 22.7359 34.0538 22.6515C34.1381 22.5672 34.1855 22.4528 34.1855 22.3335V22.3275V20.5058H41.6546V21.5553V22.3275V22.3335C41.6546 22.4528 41.702 22.5672 41.7864 22.6515C41.8707 22.7359 41.9851 22.7833 42.1044 22.7833H44.7675C44.8868 22.7833 45.0012 22.7359 45.0855 22.6515C45.1699 22.5672 45.2173 22.4528 45.2173 22.3335V22.3275V18.0974L45.2196 18.0867ZM40.3469 17.6369H35.3266C35.6071 17.2216 35.8259 16.7679 35.9763 16.2899C36.1487 15.7635 36.2835 15.2255 36.3797 14.6799C36.4773 14.1294 36.5467 13.5904 36.588 13.0628C36.6284 12.5369 36.6486 10.2261 36.6486 9.83459V9.0433H40.3469V17.6369Z" fill="white"/>
<path d="M24.665 25.6416C26.1652 27.7651 28.1532 29.4974 30.4619 30.6931C32.7706 31.8888 35.3326 32.5128 37.9326 32.5128C40.5325 32.5128 43.0945 31.8888 45.4032 30.6931C47.7119 29.4974 49.6999 27.7651 51.2002 25.6416C51.2002 25.6416 44.6271 27.8929 37.9302 27.8929C31.2333 27.8929 24.665 25.6416 24.665 25.6416Z" fill="#74AF0D"/>
<path d="M37.935 27.8929C44.6318 27.8929 51.2049 25.6416 51.2049 25.6416C51.2049 25.6416 45.6302 30.1442 37.8374 30.1442C30.0446 30.1442 24.665 25.6416 24.665 25.6416C24.665 25.6416 31.2369 27.8929 37.935 27.8929Z" fill="#94CC00"/>
</g>
<g clip-path="url(#clip1)">
<path d="M10.7779 52.7678H5.19865C5.50999 52.3063 5.75254 51.802 5.91868 51.2707C6.11019 50.6851 6.2604 50.0869 6.36819 49.4803C6.47585 48.867 6.553 48.2682 6.59963 47.6837C6.64489 47.0983 6.66752 44.528 6.66752 44.0927V43.2078H10.782L10.7779 52.7678ZM15.6947 52.7678H14.7093V40.4883V40.4811C14.7093 40.4154 14.6963 40.3504 14.6712 40.2897C14.6461 40.2291 14.6093 40.1739 14.5628 40.1275C14.5164 40.0811 14.4613 40.0442 14.4007 40.0191C14.34 39.994 14.275 39.981 14.2094 39.981H5.1143C4.84 39.981 4.57942 39.979 4.33255 39.9749C4.10823 39.9672 3.884 39.9925 3.66703 40.05C3.48719 40.0953 3.32561 40.1948 3.20415 40.335C3.09203 40.4718 3.03443 40.6797 3.03443 40.9616V42.2818C3.03443 42.727 3.02757 43.2071 3.01386 43.7223C3.00049 44.2368 2.9686 46.8277 2.9182 47.3668C2.86779 47.906 2.79579 48.4462 2.70013 48.9771C2.6088 49.4898 2.47847 49.9948 2.31028 50.4876C2.15481 50.9452 1.94775 51.3836 1.69311 51.7944C1.50688 52.098 1.2775 52.3728 1.01216 52.6103C0.903727 52.7037 0.77104 52.7643 0.629516 52.7853C0.485082 52.8039 0.346435 52.8537 0.223211 52.9314C0.0744035 53.0308 0 53.2442 0 53.5714V57.9784C0 57.9784 0 57.9784 0 57.9856C0.000271797 58.1181 0.053028 58.2451 0.14672 58.3389C0.240413 58.4326 0.367409 58.4854 0.499909 58.4856H3.43251C3.56509 58.4856 3.69224 58.433 3.786 58.3392C3.87975 58.2454 3.93242 58.1182 3.93242 57.9856V57.9784V57.5215V55.9534H12.2334V57.9784C12.2334 57.9784 12.2334 57.9784 12.2334 57.9856C12.2337 58.1181 12.2864 58.2451 12.3801 58.3389C12.4738 58.4326 12.6008 58.4854 12.7333 58.4856H15.6937C15.8262 58.4854 15.9532 58.4326 16.0468 58.3389C16.1405 58.2451 16.1933 58.1181 16.1936 57.9856C16.1936 57.9856 16.1936 57.9804 16.1936 57.9784V53.274C16.1936 53.274 16.1936 53.274 16.1936 53.2678C16.1933 53.1353 16.1405 53.0083 16.0468 52.9145C15.9532 52.8208 15.8262 52.768 15.6937 52.7678" fill="#FF6A00"/>
<path d="M42.1909 46.8822L47.334 41.045C47.4138 40.9558 47.4659 40.8453 47.4841 40.727C47.5022 40.6087 47.4856 40.4876 47.4362 40.3786C47.3868 40.2696 47.3068 40.1773 47.206 40.1129C47.1051 40.0485 46.9877 40.0149 46.8681 40.016H43.705C43.6157 40.0159 43.5274 40.0351 43.4463 40.0724C43.3651 40.1097 43.293 40.1642 43.235 40.2321L37.808 46.5498V40.6344C37.808 40.4707 37.7429 40.3137 37.6272 40.1979C37.5114 40.0821 37.3545 40.017 37.1908 40.017H34.5472C34.3835 40.017 34.2266 40.0821 34.1108 40.1979C33.9951 40.3137 33.9301 40.4707 33.9301 40.6344V55.727C33.9301 55.8908 33.9951 56.0478 34.1108 56.1636C34.2266 56.2794 34.3835 56.3444 34.5472 56.3444H37.1887C37.3524 56.3444 37.5094 56.2794 37.6251 56.1636C37.7409 56.0478 37.8059 55.8908 37.8059 55.727V51.5228L39.5371 49.613L43.4232 56.0481C43.4783 56.1398 43.5563 56.2156 43.6495 56.2681C43.7427 56.3206 43.848 56.348 43.955 56.3475H46.9514C47.0623 56.3484 47.1714 56.3195 47.2673 56.2636C47.3631 56.2078 47.4421 56.1271 47.496 56.0301C47.5499 55.9331 47.5767 55.8234 47.5735 55.7125C47.5704 55.6016 47.5374 55.4936 47.478 55.3998L42.1909 46.8822Z" fill="#FF6A00"/>
<path d="M59.981 51.9694C59.8903 51.9136 59.7868 51.8822 59.6805 51.8782C59.5742 51.8742 59.4686 51.8978 59.3741 51.9467C58.0733 52.6108 56.6325 52.9537 55.1722 52.9469C52.4237 52.9469 50.4281 50.9435 50.4281 48.1808C50.4281 45.3748 52.4052 43.4147 55.2349 43.4147C56.605 43.4147 57.9247 43.7491 59.2692 44.4364C59.3637 44.4863 59.4696 44.5108 59.5764 44.5075C59.6833 44.5042 59.7874 44.4731 59.8787 44.4174C59.9699 44.3617 60.0452 44.2833 60.097 44.1897C60.1488 44.0962 60.1755 43.9908 60.1743 43.8839V41.4309C60.1747 41.3209 60.1457 41.2129 60.0904 41.118C60.035 41.023 59.9554 40.9445 59.8596 40.8907C59.3823 40.6211 57.6357 39.7413 55.1341 39.7413C50.2296 39.7413 46.5307 43.3694 46.5307 48.1787C46.5307 52.988 50.2019 56.6161 55.0683 56.6161C57.8908 56.6161 59.7598 55.6026 59.9635 55.4842C60.0593 55.4304 60.1389 55.3519 60.1943 55.257C60.2496 55.162 60.2786 55.054 60.2782 54.944V52.5003C60.2787 52.3939 60.2516 52.2892 60.1997 52.1964C60.1478 52.1036 60.0728 52.0257 59.982 51.9704" fill="#FF6A00"/>
<path d="M18.869 40.0141H21.4673C21.631 40.0141 21.788 40.0791 21.9037 40.1949C22.0195 40.3107 22.0845 40.4677 22.0845 40.6314V48.6459L30.5583 39.9698C30.6162 39.911 30.6852 39.8643 30.7613 39.8324C30.8374 39.8004 30.9191 39.7838 31.0016 39.7836H31.0859C31.2496 39.7836 31.4066 39.8486 31.5223 39.9644C31.6381 40.0802 31.7031 40.2372 31.7031 40.4009V55.7271C31.7031 55.8909 31.6381 56.0479 31.5223 56.1637C31.4066 56.2795 31.2496 56.3445 31.0859 56.3445H28.4928C28.3291 56.3445 28.1721 56.2795 28.0564 56.1637C27.9406 56.0479 27.8756 55.8909 27.8756 55.7271V47.6952L19.3844 56.3918C19.3266 56.4511 19.2574 56.4981 19.1811 56.5301C19.1047 56.5621 19.0228 56.5784 18.94 56.5781H18.8772C18.7136 56.5781 18.5566 56.513 18.4408 56.3972C18.3251 56.2815 18.2601 56.1244 18.2601 55.9607V40.6345C18.2601 40.4708 18.3251 40.3137 18.4408 40.198C18.5566 40.0822 18.7136 40.0171 18.8772 40.0171" fill="#FF6A00"/>
<path d="M63.0328 40.0141H65.6311C65.7948 40.0141 65.9518 40.0791 66.0676 40.1949C66.1833 40.3107 66.2483 40.4677 66.2483 40.6314V48.6459L74.7231 39.9698C74.781 39.9109 74.85 39.8642 74.9261 39.8322C75.0022 39.8002 75.0839 39.7837 75.1665 39.7836H75.2498C75.4135 39.7836 75.5704 39.8486 75.6862 39.9644C75.8019 40.0802 75.8669 40.2372 75.8669 40.4009V55.7271C75.8669 55.8909 75.8019 56.0479 75.6862 56.1637C75.5704 56.2795 75.4135 56.3445 75.2498 56.3445H72.6515C72.4878 56.3445 72.3308 56.2795 72.2151 56.1637C72.0993 56.0479 72.0343 55.8909 72.0343 55.7271V47.6952L63.543 56.3918C63.4852 56.4511 63.4161 56.4981 63.3398 56.5301C63.2634 56.5621 63.1814 56.5784 63.0987 56.5781H63.0359C62.8723 56.5781 62.7153 56.513 62.5995 56.3972C62.4838 56.2815 62.4188 56.1244 62.4188 55.9607V40.6345C62.4188 40.4708 62.4838 40.3137 62.5995 40.198C62.7153 40.0822 62.8723 40.0171 63.0359 40.0171" fill="#FF6A00"/>
</g>
<defs>
<clipPath id="clip0">
<rect width="32.5157" height="32.5157" fill="white" transform="translate(21.6771)"/>
</clipPath>
<clipPath id="clip1">
<rect width="75.87" height="18.7444" fill="white" transform="translate(0 39.7413)"/>
</clipPath>
</defs>
</svg>
