<svg width="194" height="38" viewBox="0 0 194 38" fill="none" xmlns="http://www.w3.org/2000/svg">
<path d="M19.7812 21.9297V22.4297H20.2812V21.9297H19.7812ZM5.46094 21.9297V21.4297H4.96094V21.9297H5.46094ZM5.46094 37V37.5H5.96094V37H5.46094ZM0.960938 37H0.460938V37.5H0.960938V37ZM0.960938 2.875V2.375H0.460938V2.875H0.960938ZM22.1016 2.875H22.6016V2.375H22.1016V2.875ZM22.1016 6.57812V7.07812H22.6016V6.57812H22.1016ZM5.46094 6.57812V6.07812H4.96094V6.57812H5.46094ZM5.46094 18.25H4.96094V18.75H5.46094V18.25ZM19.7812 18.25H20.2812V17.75H19.7812V18.25ZM19.7812 21.4297H5.46094V22.4297H19.7812V21.4297ZM4.96094 21.9297V37H5.96094V21.9297H4.96094ZM5.46094 36.5H0.960938V37.5H5.46094V36.5ZM1.46094 37V2.875H0.460938V37H1.46094ZM0.960938 3.375H22.1016V2.375H0.960938V3.375ZM21.6016 2.875V6.57812H22.6016V2.875H21.6016ZM22.1016 6.07812H5.46094V7.07812H22.1016V6.07812ZM4.96094 6.57812V18.25H5.96094V6.57812H4.96094ZM5.46094 18.75H19.7812V17.75H5.46094V18.75ZM19.2812 18.25V21.9297H20.2812V18.25H19.2812ZM26.6016 17.3828L26.1536 17.1606L26.1522 17.1635L26.6016 17.3828ZM30.6797 12.7891L30.4174 12.3634L30.4157 12.3644L30.6797 12.7891ZM45.0234 14.7578L44.6497 15.09L44.6509 15.0914L45.0234 14.7578ZM46.8047 31.2578L46.3547 31.0399L46.3539 31.0414L46.8047 31.2578ZM42.75 35.8281L42.4867 35.4031L42.485 35.4041L42.75 35.8281ZM28.3359 33.8828L27.9622 34.215L27.9634 34.2164L28.3359 33.8828ZM31.4531 31.375L31.0553 31.6779L31.0571 31.6802L31.4531 31.375ZM41.9531 31.3516L42.3523 31.6527L42.3536 31.651L41.9531 31.3516ZM41.9062 17.3359L41.5075 17.6377L41.5106 17.6417L41.9062 17.3359ZM25.6484 24.0859C25.6484 21.668 26.1194 19.5101 27.0509 17.6022L26.1522 17.1635C25.1462 19.2243 24.6484 21.5351 24.6484 24.0859H25.6484ZM27.0495 17.605C27.9962 15.6966 29.2949 14.2386 30.9437 13.2137L30.4157 12.3644C28.5957 13.4958 27.1757 15.1003 26.1536 17.1606L27.0495 17.605ZM30.9419 13.2148C32.6063 12.1894 34.5061 11.6719 36.6562 11.6719V10.6719C34.3376 10.6719 32.2531 11.2325 30.4174 12.3634L30.9419 13.2148ZM36.6562 11.6719C39.9794 11.6719 42.6278 12.8153 44.6497 15.09L45.3971 14.4256C43.1691 11.9191 40.2394 10.6719 36.6562 10.6719V11.6719ZM44.6509 15.0914C46.6912 17.3699 47.7344 20.4208 47.7344 24.2969H48.7344C48.7344 20.2354 47.6369 16.927 45.3959 14.4243L44.6509 15.0914ZM47.7344 24.2969V24.6016H48.7344V24.2969H47.7344ZM47.7344 24.6016C47.7344 27.0046 47.2709 29.1474 46.3547 31.0399L47.2547 31.4757C48.2447 29.4307 48.7344 27.136 48.7344 24.6016H47.7344ZM46.3539 31.0414C45.4558 32.9124 44.1676 34.3618 42.4867 35.4031L43.0133 36.2532C44.8637 35.1069 46.2785 33.5094 47.2554 31.4742L46.3539 31.0414ZM42.485 35.4041C40.8227 36.4431 38.9009 36.9688 36.7031 36.9688V37.9688C39.0679 37.9688 41.1773 37.4007 43.015 36.2521L42.485 35.4041ZM36.7031 36.9688C33.3964 36.9688 30.7469 35.8258 28.7084 33.5493L27.9634 34.2164C30.2063 36.7211 33.1349 37.9688 36.7031 37.9688V36.9688ZM28.7096 33.5506C26.6837 31.2714 25.6484 28.2352 25.6484 24.3906H24.6484C24.6484 28.4211 25.7382 31.713 27.9622 34.215L28.7096 33.5506ZM25.6484 24.3906V24.0859H24.6484V24.3906H25.6484ZM29.0078 24.6016C29.0078 27.4892 29.674 29.8639 31.0553 31.6779L31.8509 31.0721C30.6385 29.4799 30.0078 27.339 30.0078 24.6016H29.0078ZM31.0571 31.6802C32.4662 33.5086 34.3637 34.4297 36.7031 34.4297V33.4297C34.6675 33.4297 33.0651 32.6476 31.8492 31.0698L31.0571 31.6802ZM36.7031 34.4297C39.0588 34.4297 40.9583 33.5001 42.3523 31.6527L41.554 31.0504C40.3542 32.6406 38.7537 33.4297 36.7031 33.4297V34.4297ZM42.3536 31.651C43.7378 29.7997 44.3984 27.2578 44.3984 24.0859H43.3984C43.3984 27.1328 42.7622 29.4346 41.5527 31.0521L42.3536 31.651ZM44.3984 24.0859C44.3984 21.2254 43.7146 18.8585 42.3019 17.0302L41.5106 17.6417C42.7541 19.2509 43.3984 21.384 43.3984 24.0859H44.3984ZM42.305 17.0342C40.8973 15.1741 38.9993 14.2344 36.6562 14.2344V15.2344C38.6882 15.2344 40.2902 16.029 41.5075 17.6377L42.305 17.0342ZM36.6562 14.2344C34.3597 14.2344 32.4872 15.1585 31.0805 16.9839L31.8726 17.5943C33.0909 16.0133 34.6715 15.2344 36.6562 15.2344V14.2344ZM31.0805 16.9839C29.6753 18.8074 29.0078 21.3696 29.0078 24.6016H30.0078C30.0078 21.4898 30.6529 19.177 31.8726 17.5943L31.0805 16.9839ZM53.9766 17.3828L53.5286 17.1606L53.5272 17.1635L53.9766 17.3828ZM58.0547 12.7891L57.7924 12.3634L57.7907 12.3644L58.0547 12.7891ZM72.3984 14.7578L72.0247 15.09L72.0259 15.0914L72.3984 14.7578ZM74.1797 31.2578L73.7297 31.0399L73.7289 31.0414L74.1797 31.2578ZM70.125 35.8281L69.8617 35.4031L69.86 35.4041L70.125 35.8281ZM55.7109 33.8828L55.3372 34.215L55.3384 34.2164L55.7109 33.8828ZM58.8281 31.375L58.4303 31.6779L58.4321 31.6802L58.8281 31.375ZM69.3281 31.3516L69.7273 31.6527L69.7286 31.651L69.3281 31.3516ZM69.2812 17.3359L68.8825 17.6377L68.8856 17.6417L69.2812 17.3359ZM53.0234 24.0859C53.0234 21.668 53.4944 19.5101 54.4259 17.6022L53.5272 17.1635C52.5212 19.2243 52.0234 21.5351 52.0234 24.0859H53.0234ZM54.4245 17.605C55.3712 15.6966 56.6699 14.2386 58.3187 13.2137L57.7907 12.3644C55.9707 13.4958 54.5507 15.1003 53.5286 17.1606L54.4245 17.605ZM58.3169 13.2148C59.9813 12.1894 61.8811 11.6719 64.0312 11.6719V10.6719C61.7126 10.6719 59.6281 11.2325 57.7924 12.3634L58.3169 13.2148ZM64.0312 11.6719C67.3544 11.6719 70.0028 12.8153 72.0247 15.09L72.7721 14.4256C70.5441 11.9191 67.6144 10.6719 64.0312 10.6719V11.6719ZM72.0259 15.0914C74.0662 17.3699 75.1094 20.4208 75.1094 24.2969H76.1094C76.1094 20.2354 75.0119 16.927 72.7709 14.4243L72.0259 15.0914ZM75.1094 24.2969V24.6016H76.1094V24.2969H75.1094ZM75.1094 24.6016C75.1094 27.0046 74.6459 29.1474 73.7297 31.0399L74.6297 31.4757C75.6197 29.4307 76.1094 27.136 76.1094 24.6016H75.1094ZM73.7289 31.0414C72.8308 32.9124 71.5426 34.3618 69.8617 35.4031L70.3883 36.2532C72.2387 35.1069 73.6535 33.5094 74.6304 31.4742L73.7289 31.0414ZM69.86 35.4041C68.1977 36.4431 66.2759 36.9688 64.0781 36.9688V37.9688C66.4429 37.9688 68.5523 37.4007 70.39 36.2521L69.86 35.4041ZM64.0781 36.9688C60.7714 36.9688 58.1219 35.8258 56.0834 33.5493L55.3384 34.2164C57.5813 36.7211 60.5099 37.9688 64.0781 37.9688V36.9688ZM56.0846 33.5506C54.0587 31.2714 53.0234 28.2352 53.0234 24.3906H52.0234C52.0234 28.4211 53.1132 31.713 55.3372 34.215L56.0846 33.5506ZM53.0234 24.3906V24.0859H52.0234V24.3906H53.0234ZM56.3828 24.6016C56.3828 27.4892 57.049 29.8639 58.4303 31.6779L59.2259 31.0721C58.0135 29.4799 57.3828 27.339 57.3828 24.6016H56.3828ZM58.4321 31.6802C59.8412 33.5086 61.7387 34.4297 64.0781 34.4297V33.4297C62.0425 33.4297 60.4401 32.6476 59.2242 31.0698L58.4321 31.6802ZM64.0781 34.4297C66.4338 34.4297 68.3333 33.5001 69.7273 31.6527L68.929 31.0504C67.7292 32.6406 66.1287 33.4297 64.0781 33.4297V34.4297ZM69.7286 31.651C71.1128 29.7997 71.7734 27.2578 71.7734 24.0859H70.7734C70.7734 27.1328 70.1372 29.4346 68.9277 31.0521L69.7286 31.651ZM71.7734 24.0859C71.7734 21.2254 71.0896 18.8585 69.6769 17.0302L68.8856 17.6417C70.1291 19.2509 70.7734 21.384 70.7734 24.0859H71.7734ZM69.68 17.0342C68.2723 15.1741 66.3743 14.2344 64.0312 14.2344V15.2344C66.0632 15.2344 67.6652 16.029 68.8825 17.6377L69.68 17.0342ZM64.0312 14.2344C61.7347 14.2344 59.8622 15.1585 58.4555 16.9839L59.2476 17.5943C60.4659 16.0133 62.0465 15.2344 64.0312 15.2344V14.2344ZM58.4555 16.9839C57.0503 18.8074 56.3828 21.3696 56.3828 24.6016H57.3828C57.3828 21.4898 58.0279 19.177 59.2476 17.5943L58.4555 16.9839ZM82.7578 14.7344L83.1518 15.0422L83.1528 15.041L82.7578 14.7344ZM97.0547 14.2188L96.6744 14.5434L97.5547 15.5743V14.2188H97.0547ZM97.0547 1V0.5H96.5547V1H97.0547ZM101.391 1H101.891V0.5H101.391V1ZM101.391 37V37.5H101.891V37H101.391ZM97.4062 37L96.9077 37.0387L96.9435 37.5H97.4062V37ZM97.1953 34.2812L97.6938 34.2426L97.5973 32.998L96.808 33.9651L97.1953 34.2812ZM82.7578 33.8594L82.3609 34.1635L82.3622 34.1651L82.7578 33.8594ZM97.0547 30.0859L97.4996 30.314L97.5547 30.2066V30.0859H97.0547ZM97.0547 18.4375H97.5547V18.3106L97.4942 18.1991L97.0547 18.4375ZM80.4922 24.1094C80.4922 20.2967 81.3949 17.2904 83.1518 15.0422L82.3638 14.4265C80.4332 16.8971 79.4922 20.1408 79.4922 24.1094H80.4922ZM83.1528 15.041C84.9026 12.7869 87.1714 11.6719 90 11.6719V10.6719C86.8598 10.6719 84.3005 11.9318 82.3629 14.4278L83.1528 15.041ZM90 11.6719C92.8408 11.6719 95.0464 12.6367 96.6744 14.5434L97.4349 13.8941C95.5943 11.7383 93.0967 10.6719 90 10.6719V11.6719ZM97.5547 14.2188V1H96.5547V14.2188H97.5547ZM97.0547 1.5H101.391V0.5H97.0547V1.5ZM100.891 1V37H101.891V1H100.891ZM101.391 36.5H97.4062V37.5H101.391V36.5ZM97.9048 36.9613L97.6938 34.2426L96.6968 34.3199L96.9077 37.0387L97.9048 36.9613ZM96.808 33.9651C95.1814 35.9579 92.9184 36.9688 89.9531 36.9688V37.9688C93.1754 37.9688 95.7404 36.8546 97.5827 34.5974L96.808 33.9651ZM89.9531 36.9688C87.1767 36.9688 84.922 35.8424 83.1535 33.5537L82.3622 34.1651C84.3123 36.6888 86.8545 37.9688 89.9531 37.9688V36.9688ZM83.1547 33.5553C81.3945 31.258 80.4922 28.2335 80.4922 24.4375H79.4922C79.4922 28.3915 80.4337 31.6482 82.3609 34.1635L83.1547 33.5553ZM80.4922 24.4375V24.1094H79.4922V24.4375H80.4922ZM83.8281 24.6016C83.8281 27.5387 84.4339 29.9062 85.7057 31.6466L86.5131 31.0566C85.4098 29.5469 84.8281 27.4144 84.8281 24.6016H83.8281ZM85.7057 31.6466C86.9917 33.4064 88.7855 34.2891 91.0312 34.2891V33.2891C89.0895 33.2891 87.602 32.5467 86.5131 31.0566L85.7057 31.6466ZM91.0312 34.2891C92.483 34.2891 93.7665 33.9624 94.8615 33.2892C95.9562 32.6162 96.8325 31.6153 97.4996 30.314L96.6097 29.8578C96.0112 31.0253 95.2508 31.876 94.3377 32.4373C93.425 32.9985 92.3295 33.2891 91.0312 33.2891V34.2891ZM97.5547 30.0859V18.4375H96.5547V30.0859H97.5547ZM97.4942 18.1991C96.8105 16.9387 95.9301 15.9703 94.8451 15.3193C93.7598 14.6681 92.4981 14.3516 91.0781 14.3516V15.3516C92.3457 15.3516 93.4238 15.6327 94.3306 16.1768C95.2378 16.7211 96.002 17.5456 96.6152 18.6759L97.4942 18.1991ZM91.0781 14.3516C88.802 14.3516 86.9912 15.2414 85.7043 17.0193L86.5144 17.6057C87.6026 16.1023 89.1042 15.3516 91.0781 15.3516V14.3516ZM85.7043 17.0193C84.4283 18.7822 83.8281 21.3349 83.8281 24.6016H84.8281C84.8281 21.4307 85.4154 19.124 86.5144 17.6057L85.7043 17.0193ZM108.891 32.8516L108.52 32.5158L108.514 32.5223L108.891 32.8516ZM112.922 32.8516L112.551 33.1874L112.557 33.1935L112.922 32.8516ZM112.922 36.5312L112.563 36.1835L112.557 36.1897L112.922 36.5312ZM108.891 36.5312L108.52 36.8664L108.525 36.8728L108.891 36.5312ZM108.734 34.7266C108.734 34.081 108.92 33.5779 109.267 33.1808L108.514 32.5223C107.987 33.1253 107.734 33.8721 107.734 34.7266H108.734ZM109.261 33.1873C109.592 32.8226 110.109 32.6016 110.906 32.6016V31.6016C109.922 31.6016 109.096 31.8805 108.52 32.5158L109.261 33.1873ZM110.906 32.6016C111.703 32.6016 112.221 32.8226 112.551 33.1873L113.292 32.5158C112.717 31.8805 111.89 31.6016 110.906 31.6016V32.6016ZM112.557 33.1935C112.93 33.5918 113.125 34.0905 113.125 34.7266H114.125C114.125 33.8626 113.851 33.1114 113.287 32.5096L112.557 33.1935ZM113.125 34.7266C113.125 35.325 112.935 35.799 112.563 36.1835L113.281 36.879C113.847 36.2947 114.125 35.5656 114.125 34.7266H113.125ZM112.557 36.1897C112.227 36.5418 111.708 36.7578 110.906 36.7578V37.7578C111.886 37.7578 112.71 37.4894 113.287 36.8728L112.557 36.1897ZM110.906 36.7578C110.105 36.7578 109.585 36.5418 109.256 36.1897L108.525 36.8728C109.102 37.4894 109.927 37.7578 110.906 37.7578V36.7578ZM109.262 36.1961C108.916 35.8132 108.734 35.335 108.734 34.7266H107.734C107.734 35.5556 107.99 36.2805 108.52 36.8664L109.262 36.1961ZM121.477 37H120.977V37.5H121.477V37ZM121.477 2.875V2.375H120.977V2.875H121.477ZM140.977 5.17188L140.659 5.55784L140.66 5.55914L140.977 5.17188ZM142.43 16.2109L142.831 16.5093L142.833 16.5068L142.43 16.2109ZM138.727 19.0469L138.529 18.5875L137.228 19.147L138.592 19.5284L138.727 19.0469ZM143.086 22L142.682 22.2951L142.686 22.3L143.086 22ZM125.977 21.0391V20.5391H125.477V21.0391H125.977ZM125.977 33.3203H125.477V33.8203H125.977V33.3203ZM138.352 31.7031L138.685 32.0755L138.686 32.0752L138.352 31.7031ZM125.977 17.4297H125.477V17.9297H125.977V17.4297ZM137.484 15.9531L137.165 15.5682L137.163 15.5703L137.484 15.9531ZM137.625 7.86719L137.316 8.26036L137.32 8.26308L137.625 7.86719ZM125.977 6.57812V6.07812H125.477V6.57812H125.977ZM121.977 37V2.875H120.977V37H121.977ZM121.477 3.375H132.633V2.375H121.477V3.375ZM132.633 3.375C136.279 3.375 138.926 4.13082 140.659 5.55784L141.294 4.78591C139.308 3.15043 136.393 2.375 132.633 2.375V3.375ZM140.66 5.55914C142.392 6.97306 143.289 9.07952 143.289 11.9688H144.289C144.289 8.85798 143.311 6.43319 141.293 4.78461L140.66 5.55914ZM143.289 11.9688C143.289 13.4607 142.867 14.7701 142.027 15.915L142.833 16.5068C143.805 15.183 144.289 13.6643 144.289 11.9688H143.289ZM142.028 15.9126C141.181 17.0525 140.021 17.9462 138.529 18.5875L138.924 19.5062C140.558 18.8038 141.866 17.8069 142.831 16.5093L142.028 15.9126ZM138.592 19.5284C140.335 20.0159 141.69 20.9385 142.682 22.2951L143.49 21.7049C142.356 20.1552 140.806 19.1091 138.861 18.5654L138.592 19.5284ZM142.686 22.3C143.692 23.6412 144.203 25.2516 144.203 27.1562H145.203C145.203 25.0609 144.636 23.2338 143.486 21.7L142.686 22.3ZM144.203 27.1562C144.203 30.1002 143.255 32.3603 141.396 34L142.057 34.75C144.167 32.8897 145.203 30.3373 145.203 27.1562H144.203ZM141.396 34C139.532 35.6438 136.861 36.5 133.312 36.5V37.5C137.014 37.5 139.953 36.6062 142.057 34.75L141.396 34ZM133.312 36.5H121.477V37.5H133.312V36.5ZM125.477 21.0391V33.3203H126.477V21.0391H125.477ZM125.977 33.8203H133.406V32.8203H125.977V33.8203ZM133.406 33.8203C135.586 33.8203 137.366 33.2578 138.685 32.0755L138.018 31.3308C136.931 32.3047 135.414 32.8203 133.406 32.8203V33.8203ZM138.686 32.0752C140.028 30.8708 140.68 29.2257 140.68 27.2031H139.68C139.68 28.993 139.113 30.348 138.018 31.331L138.686 32.0752ZM140.68 27.2031C140.68 25.0601 140.095 23.3641 138.842 22.212C137.597 21.0673 135.778 20.5391 133.477 20.5391V21.5391C135.644 21.5391 137.176 22.0382 138.165 22.9481C139.147 23.8508 139.68 25.2368 139.68 27.2031H140.68ZM133.477 20.5391H125.977V21.5391H133.477V20.5391ZM125.977 17.9297H132.773V16.9297H125.977V17.9297ZM132.773 17.9297C134.825 17.9297 136.521 17.4155 137.806 16.336L137.163 15.5703C136.104 16.4595 134.659 16.9297 132.773 16.9297V17.9297ZM137.803 16.3381C139.117 15.249 139.766 13.7658 139.766 11.9453H138.766C138.766 13.4999 138.226 14.6885 137.165 15.5682L137.803 16.3381ZM139.766 11.9453C139.766 9.9747 139.187 8.44088 137.93 7.4713L137.32 8.26308C138.25 8.981 138.766 10.1659 138.766 11.9453H139.766ZM137.934 7.47403C136.713 6.51454 134.916 6.07812 132.633 6.07812V7.07812C134.818 7.07812 136.35 7.50108 137.316 8.26035L137.934 7.47403ZM132.633 6.07812H125.977V7.07812H132.633V6.07812ZM125.477 6.57812V17.4297H126.477V6.57812H125.477ZM166.359 37L165.912 37.2236L166.05 37.5H166.359V37ZM165.75 34.3281L166.246 34.2676L166.119 33.2238L165.39 33.9814L165.75 34.3281ZM152.367 35.3594L152.034 35.7325L152.038 35.7359L152.367 35.3594ZM152.977 23.8281L153.27 24.2326L153.271 24.2322L152.977 23.8281ZM165.68 21.625V22.125H166.18V21.625H165.68ZM164.32 16.0234L163.967 16.377L163.97 16.3801L164.32 16.0234ZM154.852 18.6719V19.1719H155.352V18.6719H154.852ZM150.492 18.6719H149.992V19.1719H150.492V18.6719ZM151.828 15.0156L151.431 14.7123L151.43 14.7131L151.828 15.0156ZM155.484 12.2031L155.281 11.7462L155.28 11.747L155.484 12.2031ZM167.438 13.375L167.106 13.7491L167.108 13.7508L167.438 13.375ZM170.016 19.3984L170.516 19.3984L170.515 19.3862L170.016 19.3984ZM170.906 36.625H171.406V36.5217L171.365 36.4268L170.906 36.625ZM170.906 37V37.5H171.406V37H170.906ZM165.68 29.8984L166.129 30.117L166.18 30.0135V29.8984H165.68ZM165.68 24.6953H166.18V24.1953H165.68V24.6953ZM166.807 36.7764C166.599 36.3607 166.402 35.5469 166.246 34.2676L165.254 34.3887C165.41 35.6718 165.62 36.6393 165.912 37.2236L166.807 36.7764ZM165.39 33.9814C163.464 35.9815 161.186 36.9688 158.531 36.9688V37.9688C161.47 37.9688 164.004 36.8623 166.11 34.6749L165.39 33.9814ZM158.531 36.9688C156.131 36.9688 154.199 36.2963 152.696 34.9829L152.038 35.7359C153.754 37.235 155.932 37.9688 158.531 37.9688V36.9688ZM152.7 34.9863C151.215 33.6611 150.477 32.0009 150.477 29.9688H149.477C149.477 32.2804 150.332 34.2139 152.034 35.7325L152.7 34.9863ZM150.477 29.9688C150.477 27.4754 151.41 25.5844 153.27 24.2326L152.683 23.4236C150.543 24.9781 149.477 27.1808 149.477 29.9688H150.477ZM153.271 24.2322C155.17 22.8485 157.88 22.125 161.461 22.125V21.125C157.761 21.125 154.814 21.8702 152.682 23.424L153.271 24.2322ZM161.461 22.125H165.68V21.125H161.461V22.125ZM166.18 21.625V19.6328H165.18V21.625H166.18ZM166.18 19.6328C166.18 18.0109 165.691 16.6693 164.671 15.6668L163.97 16.3801C164.762 17.1588 165.18 18.2235 165.18 19.6328H166.18ZM164.674 15.6699C163.643 14.639 162.16 14.1641 160.312 14.1641V15.1641C161.997 15.1641 163.185 15.5953 163.967 16.377L164.674 15.6699ZM160.312 14.1641C158.678 14.1641 157.271 14.5782 156.123 15.4352L156.721 16.2367C157.666 15.5311 158.853 15.1641 160.312 15.1641V14.1641ZM156.123 15.4352C154.975 16.2919 154.352 17.3755 154.352 18.6719H155.352C155.352 17.7495 155.775 16.9425 156.721 16.2367L156.123 15.4352ZM154.852 18.1719H150.492V19.1719H154.852V18.1719ZM150.992 18.6719C150.992 17.5327 151.39 16.4178 152.226 15.3182L151.43 14.7131C150.485 15.9572 149.992 17.2798 149.992 18.6719H150.992ZM152.226 15.319C153.075 14.2055 154.224 13.3169 155.689 12.6593L155.28 11.747C153.682 12.4643 152.393 13.4508 151.431 14.7123L152.226 15.319ZM155.687 12.66C157.165 12.0034 158.79 11.6719 160.57 11.6719V10.6719C158.663 10.6719 156.898 11.0279 155.281 11.7462L155.687 12.66ZM160.57 11.6719C163.41 11.6719 165.567 12.3845 167.106 13.7491L167.769 13.0009C165.996 11.428 163.575 10.6719 160.57 10.6719V11.6719ZM167.108 13.7508C168.642 15.0966 169.456 16.9628 169.516 19.4106L170.515 19.3862C170.45 16.7091 169.546 14.5597 167.767 12.9992L167.108 13.7508ZM169.516 19.3984V31.0703H170.516V19.3984H169.516ZM169.516 31.0703C169.516 33.4328 169.816 35.3607 170.447 36.8232L171.365 36.4268C170.809 35.1393 170.516 33.3641 170.516 31.0703H169.516ZM170.406 36.625V37H171.406V36.625H170.406ZM170.906 36.5H166.359V37.5H170.906V36.5ZM159.164 34.1953C160.614 34.1953 161.989 33.8191 163.281 33.0737L162.781 32.2075C161.636 32.8684 160.433 33.1953 159.164 33.1953V34.1953ZM163.281 33.0737C164.575 32.3271 165.533 31.3429 166.129 30.117L165.23 29.6798C164.732 30.704 163.925 31.5479 162.781 32.2075L163.281 33.0737ZM166.18 29.8984V24.6953H165.18V29.8984H166.18ZM165.68 24.1953H162.281V25.1953H165.68V24.1953ZM162.281 24.1953C159.593 24.1953 157.494 24.5858 156.052 25.4298C154.569 26.298 153.812 27.6294 153.812 29.3594H154.812C154.812 27.98 155.384 26.9794 156.557 26.2928C157.772 25.5821 159.657 25.1953 162.281 25.1953V24.1953ZM153.812 29.3594C153.812 30.842 154.313 32.0537 155.349 32.9288L155.995 32.1649C155.218 31.5088 154.812 30.5955 154.812 29.3594H153.812ZM155.349 32.9288C156.363 33.7851 157.649 34.1953 159.164 34.1953V33.1953C157.836 33.1953 156.793 32.8399 155.995 32.1649L155.349 32.9288ZM181.523 37V37.5H182.023V37H181.523ZM177.188 37H176.688V37.5H177.188V37ZM177.188 1V0.5H176.688V1H177.188ZM181.523 1H182.023V0.5H181.523V1ZM181.523 36.5H177.188V37.5H181.523V36.5ZM177.688 37V1H176.688V37H177.688ZM177.188 1.5H181.523V0.5H177.188V1.5ZM181.023 1V37H182.023V1H181.023ZM193.195 37V37.5H193.695V37H193.195ZM188.859 37H188.359V37.5H188.859V37ZM188.859 1V0.5H188.359V1H188.859ZM193.195 1H193.695V0.5H193.195V1ZM193.195 36.5H188.859V37.5H193.195V36.5ZM189.359 37V1H188.359V37H189.359ZM188.859 1.5H193.195V0.5H188.859V1.5ZM192.695 1V37H193.695V1H192.695Z" fill="#383838"/>
</svg>
