<?xml version="1.0" encoding="utf-8"?>
<!-- Generator: Adobe Illustrator 25.2.3, SVG Export Plug-In . SVG Version: 6.00 Build 0)  -->
<svg version="1.1" id="Layer_1" xmlns="http://www.w3.org/2000/svg" xmlns:xlink="http://www.w3.org/1999/xlink" x="0px" y="0px"
	 viewBox="0 0 673.3 673.5" style="enable-background:new 0 0 673.3 673.5;" xml:space="preserve">
<style type="text/css">
	.st0{fill:#FFFFFF;}
	.st1{clip-path:url(#SVGID_2_);}
	.st2{fill:#46C373;}
	.st3{fill:#FF5A5A;}
	.st4{fill:#FF8C8C;}
	.st5{fill:#A5DC69;}
	.st6{fill:#1A1A1A;}
	.st7{clip-path:url(#SVGID_6_);}
	.st8{clip-path:url(#SVGID_8_);}
	.st9{fill-rule:evenodd;clip-rule:evenodd;fill:#FFD4B5;}
	.st10{fill-rule:evenodd;clip-rule:evenodd;fill:#FFA96B;}
	.st11{clip-path:url(#SVGID_10_);}
	.st12{fill-rule:evenodd;clip-rule:evenodd;fill:#EBDDD9;}
	.st13{fill-rule:evenodd;clip-rule:evenodd;fill:#FAF7F5;}
	.st14{fill-rule:evenodd;clip-rule:evenodd;fill:#FFEA60;}
</style>
<g>
	<g>
		<g>
			<g id="SVGID_4_">
				<circle class="st0" cx="336.6" cy="336.6" r="328"/>
			</g>
		</g>
		<g>
			<g>
				<g>
					<defs>
						<circle id="SVGID_1_" cx="336.6" cy="336.6" r="328"/>
					</defs>
					<clipPath id="SVGID_2_">
						<use xlink:href="#SVGID_1_"  style="overflow:visible;"/>
					</clipPath>
					<g class="st1">
						<g>
							<path class="st2" d="M209.4,348.1c-6.8-10.5-22.4-22.6-39.3-27.6l9.3-23.2c23.9,6.1,45.1,22.2,54.9,35.9L209.4,348.1z"/>
						</g>
						<g>
							<g>
								<path class="st3" d="M201.8,349.9l-24.5,2.3c-23.2,2.2-43.2,17.1-52.1,38.6l0,0c-9.6,23.4-4.2,50.3,13.8,68.1l3.5,3.5
									c21.2,21.1,38.2,46.2,50,73.7l0,0c7.4,17.2,22.6,29.6,40.9,33.4l0,0c11.4,2.3,23.2,1.1,33.9-3.5l1.9-0.8
									c6.2-2.7,11.4-7.2,15-12.9l0,0"/>
							</g>
							<g>
								<path class="st3" d="M326,534.5h0.4c6.6,1.4,13.5,0.7,19.7-2l1.9-0.8c10.7-4.6,19.7-12.3,25.9-22.2l0,0
									c9.9-15.8,11.4-35.5,4-52.6l0,0c-11.8-27.5-18.2-57.1-18.9-87l-0.1-4.9c-0.6-25.3-16.3-47.7-39.9-56.9l0,0
									c-21.7-8.5-46.3-4.2-63.8,11.1l-18.6,16.2"/>
							</g>
						</g>
						<g>
							<path class="st4" d="M307.7,548.7l5.6-3.4c21.3-12.7,29.9-39.2,20.1-61.9l-2.6-6c-12-28-18.5-58-19.1-88.5l-0.3-13.4
								c-0.3-17.1-9.6-32.7-24.5-41.2l0,0c-17.2-9.8-38.5-8.1-54,4.1l-11.6,9.2l-14.6,2.1c-19.5,2.8-35.5,17.2-40.2,36.3l0,0
								c-4.1,16.6,0.8,34.1,12.9,46.1l9.5,9.5c21.6,21.4,38.9,46.8,50.9,74.8l2.8,6.4c9.7,22.7,34.8,34.6,58.6,27.8L307.7,548.7z"/>
						</g>
						<g>
							<path class="st5" d="M226.5,324.2c0,0-25-40.4,11.1-78.3c34.8-36.6,71.9-26.3,83.5-21.2c-17,17.8-16.9,44.8-34,67.1
								C271.3,312.4,242.9,326.5,226.5,324.2z"/>
						</g>
						<g>
							<path class="st6" d="M127.7,396.7c1.5-0.6,2.7-1.8,3.4-3.4c0,0,0.1-0.1,0.1-0.2c1.3-3.3-0.4-7-3.6-8.3
								c-3.3-1.3-6.9,0.3-8.2,3.6c-1.3,3.3,0.2,7,3.5,8.3C124.4,397.4,126.2,397.4,127.7,396.7z"/>
						</g>
						<g>
							<path class="st6" d="M323.7,218.9c-8.1-3.6-50.8-19.3-90.7,22.6c-20.3,21.4-22.5,43.6-20.8,58.5c0.2,1.8,0.5,3.6,0.8,5.3
								c-9.4-6-20.2-11.1-32-14.2c-3.1-0.8-6.3,0.8-7.5,3.8l-9.3,23.2c-0.7,1.7-0.6,3.5,0.2,5.2s2.2,2.8,3.9,3.3
								c11.5,3.4,22,10.3,29.2,17.2l-20.8,2c-14,1.3-27.1,6.8-37.8,15.8c-2.7,2.3-3.1,6.3-0.8,9s6.3,3.1,9,0.8
								c7.9-6.6,17.4-10.9,27.5-12.5c-6.8,6.9-11.8,15.5-14.2,25.4c-4.6,18.7,1,38.7,14.6,52.2l9.6,9.5c21.2,21,37.8,45.5,49.6,72.8
								l2.8,6.4c6.6,15.5,19.7,26.6,34.9,31.2c-1.6,1.1-3.3,2.1-5.1,2.9l-1.9,0.8c-9.5,4.1-19.9,5.2-30.1,3.1
								c-16.2-3.3-29.8-14.4-36.3-29.6c-12.2-28.4-29.5-53.9-51.4-75.7l-3.5-3.5c-9.3-9.3-15.1-21.7-16.3-34.8
								c-0.3-3.5-3.4-6.1-6.9-5.8c-3.5,0.3-6.1,3.4-5.8,6.9c1.5,16.1,8.6,31.3,20,42.7l3.5,3.5c20.8,20.7,37.1,44.8,48.7,71.7
								c8.2,19.1,25.2,32.9,45.5,37.1c12.7,2.6,25.8,1.3,37.7-3.8l1.9-0.8c6.3-2.7,11.6-6.9,15.7-12.2c5.2,0,10.4-0.7,15.6-2.1
								l6.4-1.8c0.3-0.1,0.5-0.2,0.8-0.3s0.5-0.2,0.8-0.4l5.6-3.4c4.6-2.7,8.7-6.1,12.2-9.8c6.8,0.8,13.6-0.2,19.9-2.9l1.9-0.8
								c12-5.1,21.9-13.7,28.8-24.7c11-17.6,12.7-39.5,4.5-58.5c-11.5-26.9-17.7-55.4-18.4-84.7l-0.1-4.9
								c-0.6-27.9-17.9-52.6-43.9-62.7c-9.9-3.9-20.3-5.3-30.4-4.5c0.4-0.5,0.8-1,1.2-1.5c8.8-11.5,13.2-23.7,17.4-35.5
								c4.2-11.7,8.2-22.7,16.1-31c1.4-1.5,2-3.6,1.6-5.7C326.9,221.4,325.6,219.7,323.7,218.9z M183.2,305
								c15.7,5.1,29.4,14.4,38.5,23.3c0.2,0.2,0.5,0.5,0.7,0.7c1.9,1.9,3.5,3.8,5,5.6l-8.6,6.8l-5.7,0.8
								c-7.6-10.3-20.9-20-34.6-25.5L183.2,305z M310.1,539.8l-5,2.9l-5.6,1.6c-20.6,5.9-42.5-4.5-50.9-24.2l-2.8-6.4
								c-12.4-28.9-30-54.7-52.3-76.8l-9.6-9.5c-10.5-10.4-14.8-25.7-11.2-40c3.2-13,12.3-23.4,24.2-28.5c3.4-1.5,7-2.5,10.7-3
								l14.6-2.1c1.1-0.2,2.2-0.6,3.1-1.3l11.6-9.2c13.5-10.7,31.9-12.1,46.9-3.6c12.8,7.3,21,21,21.3,35.7l0.3,13.5
								c0.6,31.4,7.2,62,19.6,90.9l2.6,6C336.1,505.7,328.6,528.8,310.1,539.8z M316.8,313.6c21.2,8.3,35.3,28.3,35.8,51.1l0.1,4.9
								c0.7,30.9,7.2,61,19.4,89.4c6.5,15.2,5.2,32.7-3.6,46.7c-5.5,8.8-13.4,15.6-23,19.7l-1.9,0.8c-1.9,0.8-3.9,1.4-5.9,1.8
								c7.2-14.3,8.3-31.6,1.6-47.2l-2.6-6c-11.7-27.4-18-56.3-18.6-86.1l-0.3-13.5c-0.4-19.2-11-37.1-27.7-46.6
								c-8.8-5-18.5-7.4-28.2-7.2c0.6-0.5,1.2-0.9,1.8-1.4c1.9-1.1,3.8-2.3,5.7-3.5C283.9,308.7,301.1,307.5,316.8,313.6z
								 M297.6,255.8c-3.9,10.9-8,22.2-15.6,32.1c-5.2,6.8-11.8,12.8-18.8,17.5c-2.3,1.2-4.5,2.6-6.6,4.1c-7.4,4.2-14.9,7-21.2,8
								c5.4-14.5,13.4-27.8,23.8-39.7c2.3-2.6,2.1-6.7-0.6-9c-2.6-2.3-6.7-2.1-9,0.6c-9.8,11.1-17.6,23.4-23.4,36.7
								c-3.3-13.8-3.7-35.2,15.9-55.8c26.7-28,54.3-26.1,68.2-22.5C304.6,236.5,301.1,246.3,297.6,255.8z"/>
						</g>
						<g>
							<path class="st6" d="M270.2,250.3c-2.8,2.2-3.3,6.2-1.1,9c1.8,2.3,5,3,7.6,1.9c0.5-0.2,1-0.5,1.4-0.8l0,0
								c2.8-2.2,3.3-6.2,1.1-9C277,248.6,272.9,248.1,270.2,250.3z"/>
						</g>
					</g>
				</g>
			</g>
		</g>
		<g>
			<g>
				<g>
					<defs>
						<circle id="SVGID_5_" cx="336.6" cy="336.6" r="328"/>
					</defs>
					<clipPath id="SVGID_6_">
						<use xlink:href="#SVGID_5_"  style="overflow:visible;"/>
					</clipPath>
					<g class="st7">
						<g>
							<path class="st5" d="M456.8,362.6c-11.1,3.7-22.5,3.5-32.8,0.2v0.1c4,22.2,23.8,38.2,46.3,37.4c0,0,0.6-1,1.7-2.8
								c1.1-8.2,1.8-16.5,2.1-24.8l0.6-20.2h0.1C469.7,356.9,463.7,360.4,456.8,362.6z"/>
						</g>
						<g>
							<path class="st2" d="M607,422l-52.7,17.5l29-57.9L536.4,362l-27.8,55.5l-2.3-54.3l-31.8-10.5l-0.6,20.2
								c-1,33.3-9.2,66.1-24.2,95.9l-19,37.8c-3.4,6.7-0.7,14.9,6,18.2l58.7,29.5c6.7,3.4,14.9,0.7,18.2-6l10.5-21
								c17.5-34.8,45.9-63,80.9-80.1l0,0L607,422z"/>
						</g>
						<g>
							<path class="st5" d="M668.7,383c12.4-10,17.9-27,12.6-43c-4.6-13.7-16-23.2-29.1-26.1c4.1-14.2,4-29.7-1-44.8
								c-13.2-39.9-56.3-61.5-96.2-48.2c-14.5,4.8-26.6,13.6-35.5,24.7c-8.7-6.5-20.3-8.9-31.4-5.2c-12,4-20.3,14-22.7,25.5
								c-12.5-6.9-27.7-8.8-42.4-3.9c-27.8,9.2-42.9,39.3-33.7,67.2c9.2,27.9,39.3,42.9,67.2,33.7c8.1-2.7,15.1-7.1,20.8-12.8
								c13.6,11.1,32.4,15.2,50.3,9.3c2.9-1,5.7-2.2,8.3-3.6c8.8,6,18.8,10.2,29.3,12.1c0,5.4,0.9,10.9,2.7,16.3
								c6,18.1,20.8,30.8,38.1,34.9c-3.2,10.2-3.3,21.5,0.3,32.3c9.2,27.8,39.3,42.9,67.2,33.7c27.8-9.2,42.9-39.3,33.7-67.2
								C701.2,399.7,686.2,387,668.7,383z"/>
						</g>
						<g>
							<path class="st6" d="M680,380.1c9.1-11.8,12-27.7,7.2-42.1c-4.4-13.2-14.7-23.7-27.6-28.4c2.9-14.1,2.1-28.7-2.5-42.5
								c-14.3-43.1-61-66.4-104-52.2c-13.4,4.4-25.3,12.2-34.7,22.5c-9.8-5.4-21.4-6.5-32.2-2.9c-11.2,3.7-20.1,12.1-24.5,22.8
								c-12.9-5.1-27.3-5.6-40.5-1.2c-31,10.3-47.9,43.9-37.6,75c5.8,17.5,19,30.4,34.9,36.6c2.7,10.8,8.9,20.5,17.7,27.5
								c8,6.5,17.8,10.4,28,11.3c-3.8,20.7-10.5,40.8-19.9,59.5l-19,37.8c-4.9,9.7-0.9,21.6,8.8,26.5l58.7,29.5
								c4.7,2.4,10.1,2.8,15.1,1.1s9.1-5.2,11.4-9.9l10.5-21c15.7-31.3,41-57.3,71.7-74c11.3,29.3,43.9,45,74,35
								c31-10.3,47.9-43.9,37.6-75C707.6,399.6,695.6,386.7,680,380.1z M432.8,371.3c8.4,1,17.2,0.2,25.7-2.6
								c3.3-1.1,6.4-2.5,9.4-4.1l-0.2,8.1c-0.2,7.2-0.8,14.4-1.7,21.5C451.5,393.3,438.7,384.3,432.8,371.3z M518.7,524.5l-10.5,21
								c-1.8,3.6-6.3,5.1-9.9,3.3L456.8,528l19.8-39.5c1.5-3,0.3-6.8-2.8-8.3c-3-1.5-6.8-0.3-8.3,2.8l-19.8,39.5l-6.2-3.1
								c-3.6-1.8-5.1-6.3-3.3-9.9l19-37.8c15.2-30.4,23.8-64.5,24.8-98.5l0.4-13.3c6.2,3.7,12.9,6.2,19.8,7.5l2.1,50.5
								c0.1,2.8,2.1,5.2,4.9,5.8c1.1,0.2,2.2,0.2,3.2-0.2c1.5-0.5,2.8-1.6,3.6-3.1l27.2-54.1c5.7,3,11.8,5.3,18.1,6.8
								c0.4,4.5,1.3,8.9,2.8,13.2c1.5,4.4,3.4,8.6,5.8,12.5l-19.1,38.1c-1.1,2.2-0.8,4.9,0.8,6.8s4.2,2.6,6.6,1.8l28.6-9.5
								c3.2-1.1,5-4.6,3.9-7.8s-4.6-5-7.8-3.9l-14.5,4.8l9.8-19.6c6.2,6.2,13.8,11,22.3,14c-1.3,6.8-1.5,13.7-0.4,20.4
								c-17.6,9.2-33.6,21.2-47.3,35.4c-1.5-2.5-3.7-4.6-6.3-5.9l-9.5-4.8c-3.7-1.8-7.8-2.2-11.8-0.8c-3.9,1.3-7.1,4-8.9,7.7
								L503,498c-1.5,3-0.3,6.8,2.8,8.3c3,1.5,6.8,0.3,8.3-2.8l11.3-22.6c0.5-1,1.3-1.4,1.8-1.5s1.3-0.3,2.3,0.2l9.5,4.8
								c1.5,0.8,2.1,2.6,1.3,4.1l-2.8,5.7c-0.2,0.4-0.3,0.7-0.4,1.1C530.1,504.3,523.9,514.2,518.7,524.5z M512.6,368.2
								c5-0.2,10-0.9,14.8-2.4l-13.8,27.5L512.6,368.2z M670.7,479.6c-24,7.4-49.8-5.6-58.2-29.3c-3.3-9.5-3.5-19.6-0.6-29.2
								c0.3-0.9,0.4-1.9,0.3-2.8c-0.4-2.6-2.3-4.6-4.7-5.2c-11.3-2.7-20.8-9.2-27.3-18.3c-0.1-0.1-0.2-0.3-0.3-0.4
								c-2.6-3.7-4.6-7.8-6.1-12.2c-1.5-4.6-2.3-9.5-2.4-14.3c0-3-2.1-5.6-5.1-6.1c-9.6-1.8-18.9-5.6-26.9-11.1
								c-1.6-1.1-3.6-1.4-5.4-0.8c-0.3,0.1-0.7,0.2-1,0.4c-2.4,1.3-4.9,2.3-7.3,3.2c-15.3,5.1-32,2-44.5-8.2c-2.5-2-6-1.8-8.3,0.4
								c-5.2,5.2-11.3,9-18.3,11.3c-24.6,8.2-51.2-5.2-59.3-29.8s5.2-51.2,29.8-59.4c12.2-4,25.6-2.9,36.9,3.1
								c0.5,0.3,1.1,0.5,1.6,0.8c9.9,5.7,17.3,14.8,20.9,25.6c1.1,3.2,4.5,5.1,7.7,4.1c3.3-1,5.2-4.6,4.1-7.9
								c-4.2-12.7-12.5-23.4-23.5-30.7c3-7.8,9.3-14.1,17.4-16.8c8.7-2.9,18.4-1.3,25.7,4.2c2.7,2,6.5,1.5,8.6-1.1
								c9-11.3,21.3-19.5,35.4-23.6c35.7-10.2,73.6,9.7,85.5,44.9c4.5,13.4,4.9,27.6,1.1,41.1c-0.1,0.3-0.2,0.6-0.3,0.9
								c-6.7,21.8-23,39.1-43.8,46.3c-3.1,1.1-5,4.3-4.2,7.5c0.9,3.5,4.6,5.4,7.9,4.3c0,0,0,0,0.1,0c22.9-7.9,41.3-26.1,50.1-49.3
								c9.1,3.6,16.3,11,19.4,20.4c4.3,13,0.1,27.6-10.6,36.2c-1.8,1.5-2.7,3.9-2.1,6.2c0.5,2.3,2.3,4.1,4.6,4.6
								c16.1,3.7,28.8,15.3,34.1,31C709.6,444.8,695.8,471.8,670.7,479.6z"/>
						</g>
						<g>
							<path class="st6" d="M566.3,254.9l0.2-0.1l0,0c3.2-1.1,5-4.5,3.9-7.8c-1-3.2-4.5-5-7.8-4l-0.3,0.1c-3.2,1.1-5,4.6-3.9,7.8
								C559.6,254.3,563.1,256,566.3,254.9z"/>
						</g>
						<g>
							<path class="st6" d="M587.6,253.8c13.8,3,25.1,13.2,29.5,26.6c1.1,3.2,4.6,5,7.8,3.9s5-4.6,3.9-7.8
								c-5.8-17.5-20.6-30.8-38.6-34.8c-3.3-0.7-6.6,1.4-7.4,4.7C582.1,249.8,584.3,253.1,587.6,253.8z"/>
						</g>
					</g>
				</g>
			</g>
		</g>
		<g>
			<g>
				<g>
					<defs>
						<circle id="SVGID_7_" cx="336.6" cy="336.6" r="328"/>
					</defs>
					<clipPath id="SVGID_8_">
						<use xlink:href="#SVGID_7_"  style="overflow:visible;"/>
					</clipPath>
					<g class="st8">
						<g>
							<g>
								<path class="st9" d="M136.5,394.2c-56.7-23.1-115.9,7.7-115.9,54.2c0,12.7,4.4,26.5,14.5,40.8v105.5c0,18,12,32.8,29.5,32.8
									h43c10.5-21.2,36.5-46.9,71.6-65.9c12.8-6.9,26.8-13,41.7-17.6c5.6-1.8,11.4-3.3,17.3-4.6v-50.1
									c28.9-40.7,11.3-78.3-23.4-94.5C192.8,384.6,164.3,382.9,136.5,394.2L136.5,394.2z"/>
							</g>
						</g>
						<g>
							<g>
								<path class="st10" d="M322.4,394.5H214.6c34.6,16.2,52.2,53.7,23.4,94.5v50.1c6.3-1.4,12.8-2.6,19.3-3.4
									c7.4-1,14.8-1.5,22.4-1.7c6.7-0.1,13.4,0.2,20,0.9c12.5,1.3,24.8,3.9,36.6,7.6c14.8,4.6,28.8,10.8,41.8,18.1
									c17.7,9.9,33.3,21.6,45.8,33.7V489.5C471,423.1,394.7,365.1,322.4,394.5L322.4,394.5z"/>
							</g>
						</g>
						<g>
							<g>
								<path class="st10" d="M220.7,543.4c-0.8,26.2-8,51-21.6,51c-10.5,0-17.1-14.7-20-33.4c-35.1,19-61.1,44.7-71.6,65.9
									c-11,22.2-5,39.6,25.2,39.6h291.7c45,0,35.8-37.5-0.5-72.7c-12.4-12-28-23.8-45.8-33.7c-2.8,19.1-9.5,34.1-20.2,34.1
									c-13.8,0-21-25.5-21.6-52.2c-11.8-3.7-24.1-6.3-36.6-7.6c2.5,31.5-4.5,68.7-21.2,68.7c-16.5,0-23.6-36.6-21.2-67.9
									c-6.6,0.8-13,2-19.3,3.4C232.1,540.1,226.3,541.7,220.7,543.4L220.7,543.4z"/>
							</g>
						</g>
						<g>
							<g>
								<path class="st9" d="M279.7,533.7c-7.6,0.2-15.1,0.7-22.4,1.7c-2.4,31.3,4.7,67.9,21.2,67.9c16.7,0,23.8-37.2,21.2-68.7
									C293.1,533.9,286.4,533.6,279.7,533.7L279.7,533.7z"/>
							</g>
						</g>
						<g>
							<g>
								<path class="st9" d="M220.7,543.4c-14.9,4.6-28.9,10.7-41.7,17.6c2.9,18.7,9.6,33.4,20,33.4
									C212.7,594.4,219.9,569.7,220.7,543.4L220.7,543.4z"/>
							</g>
						</g>
						<g>
							<g>
								<path class="st9" d="M378.1,560.3c-13-7.2-27-13.5-41.8-18.1c0.6,26.7,7.8,52.2,21.6,52.2
									C368.6,594.4,375.3,579.3,378.1,560.3L378.1,560.3z"/>
							</g>
						</g>
						<g>
							<g>
								<path class="st6" d="M88.2,427.9c-4.9,0-8.8,4-8.8,8.8s3.9,8.8,8.8,8.8h0.1c4.9,0,8.8-4,8.8-8.8S93.1,427.9,88.2,427.9z"/>
							</g>
							<g>
								<path class="st6" d="M141.7,437c-4.9,0-8.8,4-8.8,8.8c0,4.9,4,8.8,8.8,8.8l0,0c4.9,0,8.8-4,8.8-8.8
									C150.6,440.9,146.6,437,141.7,437z"/>
							</g>
							<g>
								<path class="st6" d="M455,615.9c-5.4-9.1-13-18.5-22-27.6V492c9.6-14.4,14.5-29,14.5-43.5c0-14.2-4.8-27.8-13.9-39.3
									c-11.4-14.4-28.8-24.7-49.1-29.2c-20.8-4.5-42.7-2.7-63.6,5.5H216.6c-5.8-2.5-11.9-4.5-18.3-5.9
									c-20.2-4.4-41.5-2.8-61.9,4.8c-20.3-7.6-41.6-9.2-61.9-4.8c-20.3,4.4-37.7,14.8-49.1,29.2c-9.1,11.5-13.9,25.1-13.9,39.3
									c0,14.5,4.9,29.2,14.5,43.5v101.9c0,23.9,16.7,42,38.7,42h30.6c-0.9,3.5-1.3,7-1.3,10.2c0.1,9.4,3.9,17.1,11.1,22.3
									c6.8,4.9,16.4,7.5,28.5,7.5h133.2c5,0,9-4.1,9-9c0-5-4.1-9-9-9H132.7c0,0-21.5-8.7-21.5-11.7c-0.1-13,14.9-38,48.3-62
									c3.8-2.7,8.3-5.8,13.5-9c6.7,24.4,18.9,28.5,26.2,28.5c7.2,0,17.1-3.7,23.9-21.3c3.2-8.5,5.4-19.6,6.3-31.8
									c6-1.7,12.3-3.2,18.8-4.3c-0.2,22.6,4,47.4,14.8,59c5.6,6,11.6,7.3,15.7,7.3s10.1-1.3,15.7-7.4c11-11.9,15.1-37.1,14.8-60
									c6.5,1.1,12.7,2.5,18.7,4.1c1.7,27.4,10.3,54.4,30.2,54.4c7.4,0,19.7-4.1,26.3-29c12.4,7.8,23.8,16.7,33.3,26
									c0,0,0,0,0.1,0.1c8.9,8.6,16.2,17.5,21.3,26.1c6.3,10.7,8.5,19.9,5.7,24.8c-2.4,4.3-20.3,6.2-20.3,6.2h-79.9c-5,0-9,4.1-9,9
									c0,5,4.1,9,9,9h80c22.6,0,32.3-8.7,36.4-16C465.4,651.6,468,637.7,455,615.9L455,615.9z M199.1,585.6c-2.1,0-7-5-10.2-19.7
									c6.7-3.4,14-6.7,22-9.7C208.5,575.7,202.5,585.6,199.1,585.6z M230.6,484c-1.1,1.5-1.6,3.3-1.6,5.1v43.2
									c-59.1,15.3-107.7,53-126.7,86.2H64.7c-13.6,0-20.7-12-20.7-23.9V489.1c0-1.8-0.6-3.6-1.6-5.1c-16.1-22.6-17.1-46-2.8-64
									c16.6-21,54.1-33.8,93.5-17.7c2.1,0.9,4.5,0.9,6.7,0c39.5-16.1,76.9-3.3,93.6,17.7C247.7,438,246.7,461.3,230.6,484
									L230.6,484z M281.2,592.8c-1.5,1.7-2.4,1.7-2.7,1.7c-0.3,0-1.2,0-2.7-1.7c-6.5-7.1-10.6-27.9-10.1-49.5
									c4.6-0.4,9.3-0.7,14.1-0.8c0.9,0,1.9,0,2.8,0c2.9,0,5.8,0.1,8.6,0.2C292,564.5,287.9,585.6,281.2,592.8L281.2,592.8z
									 M358,585.6c-3.5,0-9.7-10.5-12-30.7c8.2,3.2,15.6,6.6,22.3,10.1C365.1,580.4,360.1,585.6,358,585.6z M419.1,480.5h-92.5
									c-6,0-10.6,5.9-8.5,12.1c1.2,3.6,4.7,5.9,8.6,5.9H415v75.6c-8.8-7-18.4-13.6-28.4-19.4c-23.7-13.7-60.6-29.4-103.7-29.9
									c-8-0.1-25.2,1.3-35.8,3.2v-36.5c9.6-14.2,14.5-28.9,14.5-43.3c0-14.1-4.8-27.7-13.9-39.1c-1.5-1.9-3.2-3.8-5-5.6h79.9
									c1.1,0,2.3-0.2,3.3-0.7c39.5-16,77-3.3,93.5,17.6C432.9,437.5,432.7,459.2,419.1,480.5L419.1,480.5z"/>
							</g>
							<g>
								<path class="st6" d="M109.3,454.2c-4.9,0-8.8,4-8.8,8.8s4,8.8,8.8,8.8l0,0c4.9,0,8.8-4,8.8-8.8S114.2,454.2,109.3,454.2z"/>
							</g>
							<g>
								<path class="st6" d="M306.6,657.8c-4.9,0-8.8,4-8.8,8.8c0,4.9,4,8.8,8.8,8.8l0,0c4.9,0,8.8-4,8.8-8.8
									C315.4,661.7,311.4,657.8,306.6,657.8z"/>
							</g>
						</g>
					</g>
				</g>
			</g>
		</g>
		<g>
			<g>
				<g>
					<defs>
						<circle id="SVGID_9_" cx="336.6" cy="336.6" r="328"/>
					</defs>
					<clipPath id="SVGID_10_">
						<use xlink:href="#SVGID_9_"  style="overflow:visible;"/>
					</clipPath>
					<g class="st11">
						<g>
							<g>
								<path class="st12" d="M491.9,489.4c18.6,33.8,0.5,109.6-18.7,139.9c-3.4,5.3-7,10-10.9,14c31.6,20,76.3,19.1,102.6-22.4
									c16.1-25.5,31.4-83,24.9-120.8c-2.4-14-7.8-25.2-17.2-31.2C553.2,456.6,520.7,469.5,491.9,489.4L491.9,489.4z"/>
							</g>
						</g>
						<g>
							<g>
								<path class="st13" d="M430.5,557.1c18.6,11.8,24.1,36.4,12.4,55c-11.8,18.6-36.4,24.2-55,12.4s-24.2-36.4-12.4-55
									C387.3,550.9,411.9,545.3,430.5,557.1L430.5,557.1z M346.9,549.4c-22.5,35.6-12.2,70.6,11,92.4l27.2,17.2
									c25.3,9.9,55.1,7.2,77.3-15.7c3.9-4,7.5-8.7,10.9-14c19.2-30.3,37.2-106.2,18.7-139.9c-2.8-5.1-6.4-9.2-11-12.1
									C446.1,455.3,369,514.5,346.9,549.4L346.9,549.4z"/>
							</g>
						</g>
						<g>
							<g>
								<path class="st14" d="M375.5,569.5c-11.8,18.6-6.2,43.2,12.4,55s43.2,6.2,55-12.4c11.8-18.6,6.2-43.2-12.4-55
									S387.3,550.9,375.5,569.5L375.5,569.5z"/>
							</g>
						</g>
						<g>
							<g>
								<path class="st6" d="M405.1,521.8c0.4,0.6,0.9,1,1.5,1.4c1.8,1.1,4.2,1.1,6-0.2c12.3-8.8,23.7-15.3,34-19.1
									c2.8-1,4.2-4.1,3.1-6.9c-1-2.8-4.1-4.2-6.9-3.1c-11.2,4.2-23.5,11.1-36.5,20.5C403.9,516,403.4,519.4,405.1,521.8z"/>
							</g>
							<g>
								<path class="st6" d="M595.5,540.7c1.8-15.7,1.7-29.4-0.3-41c0-0.4-0.1-0.8-0.2-1.1c-2.9-16.1-9.5-27.9-19.5-34.2
									c-10.4-6.6-24.3-7.4-41.2-2.4c-12.4,3.7-26.4,10.5-40.8,20c-2.7-3.7-6-6.8-9.7-9.1c-17.2-10.9-44.8-5.7-77.5,14.7
									c-26.2,16.3-51.9,40-63.9,59.1c-13,20.6-16.6,42.6-10.4,63.6c5.5,18.5,18.2,34.9,35.8,46.1c17.7,11.2,37.9,15.7,57,12.7
									c14.5-2.3,27.5-8.7,38.4-18.9c16.8,9.5,35.5,13.2,53.3,10.4c21.6-3.4,40-16.1,53-36.7C581.5,604.7,592,571.3,595.5,540.7
									L595.5,540.7z M470.7,642c2.5-3,4.9-6.3,7.1-9.8c7-11.1,13.9-28.1,18.9-46.6c0.8-2.8-0.9-5.8-3.8-6.5
									c-2.8-0.8-5.8,0.9-6.5,3.8c-4.8,17.5-11.2,33.5-17.7,43.7c-3.1,4.9-6.5,9.2-10.1,13c-0.1,0.1-0.2,0.2-0.3,0.3
									c-25.2,25.9-60.2,23.1-84.9,7.5c-28.3-17.9-47.2-55.2-22.1-95c11.1-17.5,36-40.5,60.5-55.7c28.7-17.8,52.8-23.2,66.2-14.7
									c11.9,7.5,17.6,27.1,16,55.2c-0.2,2.9,2.1,5.5,5,5.6s5.5-2.1,5.6-5c1.1-19.1-1-34.7-6-46.4c30.5-20.1,56.8-26.8,71.1-17.8
									c6.7,4.3,11.5,12.5,14,23.8l-20.6,11.1c-1.7,0.9-2.7,2.6-2.8,4.4l-1.2,24.3l-21.5,11.5c-2.6,1.4-3.6,4.6-2.2,7.2
									c0.5,0.8,1.1,1.5,1.8,2c1.6,1,3.6,1.1,5.4,0.2l24.1-13c1.7-0.9,2.7-2.6,2.8-4.4l1.2-24.3l14.7-7.9c0.8,9.1,0.6,19.5-0.7,31
									c-3.3,28.7-13.3,61-24.4,78.6C536.9,655.3,498.7,656.7,470.7,642L470.7,642z"/>
							</g>
							<g>
								<path class="st6" d="M433.4,552.6c-21.1-13.3-49-7-62.4,14c-13.3,21.1-7,49,14,62.4c21.1,13.3,49,7,62.3-14
									C460.7,593.9,454.4,565.9,433.4,552.6L433.4,552.6z M390.8,620c-16.1-10.2-20.9-31.5-10.7-47.7
									c10.2-16.1,31.5-20.9,47.6-10.7s20.9,31.5,10.7,47.6C428.2,625.3,406.8,630.1,390.8,620L390.8,620z"/>
							</g>
							<g>
								<path class="st6" d="M497.2,555.6c-2.9-0.3-5.5,1.9-5.8,4.8l0,0c-0.2,2.1,0.8,4,2.5,5c0.7,0.4,1.5,0.7,2.3,0.8
									c2.9,0.3,5.5-1.9,5.8-4.8S500.2,555.9,497.2,555.6L497.2,555.6z"/>
							</g>
						</g>
					</g>
				</g>
			</g>
		</g>
		<g>
			<g id="SVGID_3_">
				<path class="st6" d="M336.6,673.1c-89.9,0-174.4-35-237.9-98.6S0.1,426.5,0.1,336.6s35-174.4,98.6-237.9s148-98.6,237.9-98.6
					s174.4,35,237.9,98.6s98.6,148.1,98.6,237.9c0,89.9-35,174.4-98.6,237.9S426.4,673.1,336.6,673.1z M336.6,17.1
					c-176.2,0-319.5,143.3-319.5,319.5s143.3,319.5,319.5,319.5s319.5-143.3,319.5-319.5S512.7,17.1,336.6,17.1z"/>
			</g>
		</g>
	</g>
	<g>
		<path class="st6" d="M56.2,286c-0.7,0-1.4-0.1-2.2-0.3c-4.5-1.2-7.3-5.8-6.1-10.4C69.1,194,118.3,140.6,155.8,110
			c40.6-33.1,75.8-46.9,77.3-47.5c4.4-1.7,9.3,0.5,11,4.9s-0.5,9.3-4.9,11l0,0c-0.3,0.1-34.6,13.6-73.2,45.2
			c-35.3,28.9-81.7,79.5-101.7,156C63.4,283.4,59.9,286,56.2,286z"/>
	</g>
	<circle class="st6" cx="270.7" cy="60.2" r="8.8"/>
</g>
</svg>
