<svg width="329" height="46" viewBox="0 0 329 46" fill="none" xmlns="http://www.w3.org/2000/svg">
<g clip-path="url(#clip0)">
<path d="M6.41406 39H5.91406V39.5H6.41406V39ZM6.41406 16.9922H6.91406V16.4922H6.41406V16.9922ZM2.40625 16.9922H1.90625V17.4922H2.40625V16.9922ZM2.40625 13.6406V13.1406H1.90625V13.6406H2.40625ZM6.41406 13.6406V14.1406H6.91406V13.6406H6.41406ZM17.7344 2.90625L18.2333 2.93951L18.2605 2.53035L17.8646 2.42352L17.7344 2.90625ZM17.5 6.42188L17.406 6.91295L17.9613 7.01929L17.9989 6.45513L17.5 6.42188ZM11.8984 7.45312L12.2623 7.79604L12.2656 7.79255L11.8984 7.45312ZM10.75 13.6406H10.25V14.1406H10.75V13.6406ZM16.1641 13.6406H16.6641V13.1406H16.1641V13.6406ZM16.1641 16.9922V17.4922H16.6641V16.9922H16.1641ZM10.75 16.9922V16.4922H10.25V16.9922H10.75ZM10.75 39V39.5H11.25V39H10.75ZM6.91406 39V16.9922H5.91406V39H6.91406ZM6.41406 16.4922H2.40625V17.4922H6.41406V16.4922ZM2.90625 16.9922V13.6406H1.90625V16.9922H2.90625ZM2.40625 14.1406H6.41406V13.1406H2.40625V14.1406ZM6.91406 13.6406V11.0391H5.91406V13.6406H6.91406ZM6.91406 11.0391C6.91406 8.40922 7.61501 6.44892 8.95104 5.08415L8.23646 4.3846C6.66624 5.98858 5.91406 8.2314 5.91406 11.0391H6.91406ZM8.95104 5.08415C10.2857 3.72077 12.1966 3.00781 14.7578 3.00781V2.00781C12.0065 2.00781 9.80803 2.77923 8.23646 4.3846L8.95104 5.08415ZM14.7578 3.00781C15.713 3.00781 16.6614 3.13459 17.6041 3.38898L17.8646 2.42352C16.8386 2.14666 15.8027 2.00781 14.7578 2.00781V3.00781ZM17.2355 2.87299L17.0011 6.38862L17.9989 6.45513L18.2333 2.93951L17.2355 2.87299ZM17.594 5.9308C16.8256 5.78364 16.0126 5.71094 15.1562 5.71094V6.71094C15.9561 6.71094 16.7057 6.77886 17.406 6.91295L17.594 5.9308ZM15.1562 5.71094C13.6474 5.71094 12.414 6.15897 11.5313 7.1137L12.2656 7.79255C12.9141 7.09103 13.8526 6.71094 15.1562 6.71094V5.71094ZM11.5345 7.11022C10.6534 8.04536 10.25 9.35804 10.25 10.9688H11.25C11.25 9.51696 11.6123 8.48589 12.2623 7.79603L11.5345 7.11022ZM10.25 10.9688V13.6406H11.25V10.9688H10.25ZM10.75 14.1406H16.1641V13.1406H10.75V14.1406ZM15.6641 13.6406V16.9922H16.6641V13.6406H15.6641ZM16.1641 16.4922H10.75V17.4922H16.1641V16.4922ZM10.25 16.9922V39H11.25V16.9922H10.25ZM10.75 38.5H6.41406V39.5H10.75V38.5ZM21.2734 19.3828L20.8255 19.1606L20.8241 19.1635L21.2734 19.3828ZM25.3516 14.7891L25.0893 14.3634L25.0876 14.3644L25.3516 14.7891ZM39.6953 16.7578L39.3216 17.09L39.3228 17.0914L39.6953 16.7578ZM41.4766 33.2578L41.0265 33.0399L41.0258 33.0414L41.4766 33.2578ZM37.4219 37.8281L37.1586 37.4031L37.1569 37.4041L37.4219 37.8281ZM23.0078 35.8828L22.6341 36.215L22.6353 36.2164L23.0078 35.8828ZM26.125 33.375L25.7272 33.6779L25.729 33.6802L26.125 33.375ZM36.625 33.3516L37.0241 33.6527L37.0254 33.651L36.625 33.3516ZM36.5781 19.3359L36.1794 19.6377L36.1825 19.6417L36.5781 19.3359ZM20.3203 26.0859C20.3203 23.668 20.7913 21.5101 21.7228 19.6022L20.8241 19.1635C19.8181 21.2243 19.3203 23.5351 19.3203 26.0859H20.3203ZM21.7214 19.605C22.6681 17.6966 23.9668 16.2386 25.6155 15.2137L25.0876 14.3644C23.2676 15.4958 21.8476 17.1003 20.8255 19.1606L21.7214 19.605ZM25.6138 15.2148C27.2781 14.1894 29.178 13.6719 31.3281 13.6719V12.6719C29.0095 12.6719 26.925 13.2325 25.0893 14.3634L25.6138 15.2148ZM31.3281 13.6719C34.6512 13.6719 37.2997 14.8153 39.3216 17.09L40.069 16.4256C37.841 13.9191 34.9113 12.6719 31.3281 12.6719V13.6719ZM39.3228 17.0914C41.3631 19.3699 42.4062 22.4208 42.4062 26.2969H43.4062C43.4062 22.2354 42.3088 18.927 40.0678 16.4243L39.3228 17.0914ZM42.4062 26.2969V26.6016H43.4062V26.2969H42.4062ZM42.4062 26.6016C42.4062 29.0046 41.9428 31.1474 41.0265 33.0399L41.9266 33.4757C42.9166 31.4307 43.4062 29.136 43.4062 26.6016H42.4062ZM41.0258 33.0414C40.1277 34.9124 38.8395 36.3618 37.1586 37.4031L37.6852 38.2532C39.5355 37.1069 40.9504 35.5094 41.9273 33.4742L41.0258 33.0414ZM37.1569 37.4041C35.4946 38.4431 33.5728 38.9688 31.375 38.9688V39.9688C33.7397 39.9688 35.8492 39.4007 37.6869 38.2521L37.1569 37.4041ZM31.375 38.9688C28.0683 38.9688 25.4187 37.8258 23.3803 35.5493L22.6353 36.2164C24.8781 38.7211 27.8067 39.9688 31.375 39.9688V38.9688ZM23.3815 35.5506C21.3555 33.2714 20.3203 30.2352 20.3203 26.3906H19.3203C19.3203 30.4211 20.4101 33.713 22.6341 36.215L23.3815 35.5506ZM20.3203 26.3906V26.0859H19.3203V26.3906H20.3203ZM23.6797 26.6016C23.6797 29.4892 24.3459 31.8639 25.7272 33.6779L26.5228 33.0721C25.3104 31.4799 24.6797 29.339 24.6797 26.6016H23.6797ZM25.729 33.6802C27.138 35.5086 29.0356 36.4297 31.375 36.4297V35.4297C29.3394 35.4297 27.737 34.6476 26.521 33.0698L25.729 33.6802ZM31.375 36.4297C33.7307 36.4297 35.6302 35.5001 37.0241 33.6527L36.2259 33.0504C35.026 34.6406 33.4255 35.4297 31.375 35.4297V36.4297ZM37.0254 33.651C38.4097 31.7997 39.0703 29.2578 39.0703 26.0859H38.0703C38.0703 29.1328 37.4341 31.4346 36.2246 33.0521L37.0254 33.651ZM39.0703 26.0859C39.0703 23.2254 38.3865 20.8585 36.9738 19.0302L36.1825 19.6417C37.426 21.2509 38.0703 23.384 38.0703 26.0859H39.0703ZM36.9768 19.0342C35.5692 17.1741 33.6712 16.2344 31.3281 16.2344V17.2344C33.3601 17.2344 34.9621 18.029 36.1794 19.6377L36.9768 19.0342ZM31.3281 16.2344C29.0316 16.2344 27.1591 17.1585 25.7524 18.9839L26.5445 19.5943C27.7628 18.0133 29.3434 17.2344 31.3281 17.2344V16.2344ZM25.7524 18.9839C24.3471 20.8074 23.6797 23.3696 23.6797 26.6016H24.6797C24.6797 23.4898 25.3247 21.177 26.5445 19.5943L25.7524 18.9839ZM48.6484 19.3828L48.2005 19.1606L48.1991 19.1635L48.6484 19.3828ZM52.7266 14.7891L52.4643 14.3634L52.4626 14.3644L52.7266 14.7891ZM67.0703 16.7578L66.6966 17.09L66.6978 17.0914L67.0703 16.7578ZM68.8516 33.2578L68.4015 33.0399L68.4008 33.0414L68.8516 33.2578ZM64.7969 37.8281L64.5336 37.4031L64.5319 37.4041L64.7969 37.8281ZM50.3828 35.8828L50.0091 36.215L50.0103 36.2164L50.3828 35.8828ZM53.5 33.375L53.1022 33.6779L53.104 33.6802L53.5 33.375ZM64 33.3516L64.3991 33.6527L64.4004 33.651L64 33.3516ZM63.9531 19.3359L63.5544 19.6377L63.5575 19.6417L63.9531 19.3359ZM47.6953 26.0859C47.6953 23.668 48.1663 21.5101 49.0978 19.6022L48.1991 19.1635C47.1931 21.2243 46.6953 23.5351 46.6953 26.0859H47.6953ZM49.0964 19.605C50.0431 17.6966 51.3418 16.2386 52.9905 15.2137L52.4626 14.3644C50.6426 15.4958 49.2226 17.1003 48.2005 19.1606L49.0964 19.605ZM52.9888 15.2148C54.6531 14.1894 56.553 13.6719 58.7031 13.6719V12.6719C56.3845 12.6719 54.3 13.2325 52.4643 14.3634L52.9888 15.2148ZM58.7031 13.6719C62.0262 13.6719 64.6747 14.8153 66.6966 17.09L67.444 16.4256C65.216 13.9191 62.2863 12.6719 58.7031 12.6719V13.6719ZM66.6978 17.0914C68.7381 19.3699 69.7812 22.4208 69.7812 26.2969H70.7812C70.7812 22.2354 69.6838 18.927 67.4428 16.4243L66.6978 17.0914ZM69.7812 26.2969V26.6016H70.7812V26.2969H69.7812ZM69.7812 26.6016C69.7812 29.0046 69.3178 31.1474 68.4015 33.0399L69.3016 33.4757C70.2916 31.4307 70.7812 29.136 70.7812 26.6016H69.7812ZM68.4008 33.0414C67.5027 34.9124 66.2145 36.3618 64.5336 37.4031L65.0602 38.2532C66.9105 37.1069 68.3254 35.5094 69.3023 33.4742L68.4008 33.0414ZM64.5319 37.4041C62.8696 38.4431 60.9478 38.9688 58.75 38.9688V39.9688C61.1147 39.9688 63.2242 39.4007 65.0619 38.2521L64.5319 37.4041ZM58.75 38.9688C55.4433 38.9688 52.7937 37.8258 50.7553 35.5493L50.0103 36.2164C52.2531 38.7211 55.1817 39.9688 58.75 39.9688V38.9688ZM50.7565 35.5506C48.7305 33.2714 47.6953 30.2352 47.6953 26.3906H46.6953C46.6953 30.4211 47.7851 33.713 50.0091 36.215L50.7565 35.5506ZM47.6953 26.3906V26.0859H46.6953V26.3906H47.6953ZM51.0547 26.6016C51.0547 29.4892 51.7209 31.8639 53.1022 33.6779L53.8978 33.0721C52.6854 31.4799 52.0547 29.339 52.0547 26.6016H51.0547ZM53.104 33.6802C54.513 35.5086 56.4106 36.4297 58.75 36.4297V35.4297C56.7144 35.4297 55.112 34.6476 53.896 33.0698L53.104 33.6802ZM58.75 36.4297C61.1057 36.4297 63.0052 35.5001 64.3991 33.6527L63.6009 33.0504C62.401 34.6406 60.8005 35.4297 58.75 35.4297V36.4297ZM64.4004 33.651C65.7847 31.7997 66.4453 29.2578 66.4453 26.0859H65.4453C65.4453 29.1328 64.8091 31.4346 63.5996 33.0521L64.4004 33.651ZM66.4453 26.0859C66.4453 23.2254 65.7615 20.8585 64.3488 19.0302L63.5575 19.6417C64.801 21.2509 65.4453 23.384 65.4453 26.0859H66.4453ZM64.3518 19.0342C62.9442 17.1741 61.0462 16.2344 58.7031 16.2344V17.2344C60.7351 17.2344 62.3371 18.029 63.5544 19.6377L64.3518 19.0342ZM58.7031 16.2344C56.4066 16.2344 54.5341 17.1585 53.1274 18.9839L53.9195 19.5943C55.1378 18.0133 56.7184 17.2344 58.7031 17.2344V16.2344ZM53.1274 18.9839C51.7221 20.8074 51.0547 23.3696 51.0547 26.6016H52.0547C52.0547 23.4898 52.6997 21.177 53.9195 19.5943L53.1274 18.9839ZM77.4297 16.7344L77.8237 17.0422L77.8246 17.041L77.4297 16.7344ZM91.7266 16.2188L91.3463 16.5434L92.2266 17.5743V16.2188H91.7266ZM91.7266 3V2.5H91.2266V3H91.7266ZM96.0625 3H96.5625V2.5H96.0625V3ZM96.0625 39V39.5H96.5625V39H96.0625ZM92.0781 39L91.5796 39.0387L91.6154 39.5H92.0781V39ZM91.8672 36.2812L92.3657 36.2426L92.2691 34.998L91.4798 35.9651L91.8672 36.2812ZM77.4297 35.8594L77.0328 36.1635L77.034 36.1651L77.4297 35.8594ZM91.7266 32.0859L92.1715 32.314L92.2266 32.2066V32.0859H91.7266ZM91.7266 20.4375H92.2266V20.3106L92.1661 20.1991L91.7266 20.4375ZM75.1641 26.1094C75.1641 22.2967 76.0668 19.2904 77.8237 17.0422L77.0357 16.4265C75.1051 18.8971 74.1641 22.1408 74.1641 26.1094H75.1641ZM77.8246 17.041C79.5745 14.7869 81.8433 13.6719 84.6719 13.6719V12.6719C81.5317 12.6719 78.9724 13.9318 77.0347 16.4278L77.8246 17.041ZM84.6719 13.6719C87.5127 13.6719 89.7182 14.6367 91.3463 16.5434L92.1068 15.8941C90.2661 13.7383 87.7686 12.6719 84.6719 12.6719V13.6719ZM92.2266 16.2188V3H91.2266V16.2188H92.2266ZM91.7266 3.5H96.0625V2.5H91.7266V3.5ZM95.5625 3V39H96.5625V3H95.5625ZM96.0625 38.5H92.0781V39.5H96.0625V38.5ZM92.5766 38.9613L92.3657 36.2426L91.3687 36.3199L91.5796 39.0387L92.5766 38.9613ZM91.4798 35.9651C89.8533 37.9579 87.5902 38.9688 84.625 38.9688V39.9688C87.8473 39.9688 90.4123 38.8546 92.2545 36.5974L91.4798 35.9651ZM84.625 38.9688C81.8486 38.9688 79.5939 37.8424 77.8253 35.5536L77.034 36.1651C78.9842 38.6888 81.5264 39.9688 84.625 39.9688V38.9688ZM77.8266 35.5553C76.0663 33.258 75.1641 30.2335 75.1641 26.4375H74.1641C74.1641 30.3915 75.1055 33.6482 77.0328 36.1635L77.8266 35.5553ZM75.1641 26.4375V26.1094H74.1641V26.4375H75.1641ZM78.5 26.6016C78.5 29.5387 79.1058 31.9062 80.3776 33.6466L81.1849 33.0566C80.0817 31.5469 79.5 29.4144 79.5 26.6016H78.5ZM80.3776 33.6466C81.6636 35.4064 83.4574 36.2891 85.7031 36.2891V35.2891C83.7614 35.2891 82.2739 34.5467 81.1849 33.0566L80.3776 33.6466ZM85.7031 36.2891C87.1549 36.2891 88.4383 35.9624 89.5333 35.2892C90.6281 34.6162 91.5044 33.6153 92.1715 32.314L91.2816 31.8578C90.6831 33.0253 89.9227 33.876 89.0096 34.4373C88.0968 34.9985 87.0013 35.2891 85.7031 35.2891V36.2891ZM92.2266 32.0859V20.4375H91.2266V32.0859H92.2266ZM92.1661 20.1991C91.4823 18.9387 90.602 17.9703 89.517 17.3193C88.4317 16.6681 87.1699 16.3516 85.75 16.3516V17.3516C87.0176 17.3516 88.0956 17.6327 89.0025 18.1768C89.9097 18.7211 90.6739 19.5456 91.2871 20.6759L92.1661 20.1991ZM85.75 16.3516C83.4739 16.3516 81.6631 17.2414 80.3762 19.0193L81.1863 19.6057C82.2744 18.1023 83.7761 17.3516 85.75 17.3516V16.3516ZM80.3762 19.0193C79.1002 20.7822 78.5 23.3349 78.5 26.6016H79.5C79.5 23.4307 80.0873 21.124 81.1863 19.6057L80.3762 19.0193ZM103.562 34.8516L103.192 34.5158L103.186 34.5223L103.562 34.8516ZM107.594 34.8516L107.223 35.1874L107.229 35.1935L107.594 34.8516ZM107.594 38.5312L107.234 38.1835L107.229 38.1897L107.594 38.5312ZM103.562 38.5312L103.191 38.8664L103.197 38.8728L103.562 38.5312ZM103.406 36.7266C103.406 36.081 103.591 35.5779 103.939 35.1808L103.186 34.5223C102.659 35.1253 102.406 35.8721 102.406 36.7266H103.406ZM103.933 35.1873C104.264 34.8226 104.781 34.6016 105.578 34.6016V33.6016C104.594 33.6016 103.768 33.8805 103.192 34.5158L103.933 35.1873ZM105.578 34.6016C106.375 34.6016 106.893 34.8226 107.223 35.1873L107.964 34.5158C107.389 33.8805 106.562 33.6016 105.578 33.6016V34.6016ZM107.229 35.1935C107.602 35.5918 107.797 36.0905 107.797 36.7266H108.797C108.797 35.8626 108.523 35.1114 107.959 34.5096L107.229 35.1935ZM107.797 36.7266C107.797 37.325 107.607 37.799 107.234 38.1835L107.953 38.879C108.518 38.2947 108.797 37.5656 108.797 36.7266H107.797ZM107.229 38.1897C106.899 38.5418 106.38 38.7578 105.578 38.7578V39.7578C106.558 39.7578 107.382 39.4894 107.959 38.8728L107.229 38.1897ZM105.578 38.7578C104.776 38.7578 104.257 38.5418 103.928 38.1897L103.197 38.8728C103.774 39.4894 104.599 39.7578 105.578 39.7578V38.7578ZM103.934 38.1961C103.588 37.8132 103.406 37.335 103.406 36.7266H102.406C102.406 37.5556 102.662 38.2805 103.191 38.8664L103.934 38.1961ZM134.266 35.9531L134.664 36.2557L134.665 36.2544L134.266 35.9531ZM119.664 36.0703L120.06 35.7647L119.259 34.7285L119.165 36.0344L119.664 36.0703ZM119.453 39V39.5H119.918L119.952 39.0359L119.453 39ZM115.469 39H114.969V39.5H115.469V39ZM115.469 3V2.5H114.969V3H115.469ZM119.805 3H120.305V2.5H119.805V3ZM119.805 16.4297H119.305V17.8471L120.194 16.7434L119.805 16.4297ZM134.289 16.6641L133.889 16.9645L133.891 16.9662L134.289 16.6641ZM119.805 20.8359L119.352 20.623L119.305 20.7242V20.8359H119.805ZM119.805 31.8047H119.305V31.9227L119.357 32.0283L119.805 31.8047ZM136.438 26.6016C136.438 30.4016 135.565 33.4028 133.867 35.6519L134.665 36.2544C136.529 33.7847 137.438 30.5515 137.438 26.6016H136.438ZM133.868 35.6506C132.183 37.8672 129.941 38.9688 127.094 38.9688V39.9688C130.247 39.9688 132.786 38.7266 134.664 36.2557L133.868 35.6506ZM127.094 38.9688C124.024 38.9688 121.703 37.892 120.06 35.7647L119.268 36.376C121.125 38.7799 123.757 39.9688 127.094 39.9688V38.9688ZM119.165 36.0344L118.954 38.9641L119.952 39.0359L120.163 36.1062L119.165 36.0344ZM119.453 38.5H115.469V39.5H119.453V38.5ZM115.969 39V3H114.969V39H115.969ZM115.469 3.5H119.805V2.5H115.469V3.5ZM119.305 3V16.4297H120.305V3H119.305ZM120.194 16.7434C121.838 14.7025 124.102 13.6719 127.047 13.6719V12.6719C123.835 12.6719 121.271 13.8131 119.415 16.116L120.194 16.7434ZM127.047 13.6719C129.978 13.6719 132.24 14.7701 133.889 16.9645L134.689 16.3636C132.838 13.9017 130.272 12.6719 127.047 12.6719V13.6719ZM133.891 16.9662C135.569 19.1795 136.438 22.2476 136.438 26.2266H137.438C137.438 22.1118 136.54 18.8049 134.687 16.3619L133.891 16.9662ZM136.438 26.2266V26.6016H137.438V26.2266H136.438ZM133.102 26.1094C133.102 23.1013 132.522 20.7029 131.299 18.9765L130.483 19.5547C131.54 21.0471 132.102 23.2112 132.102 26.1094H133.102ZM131.299 18.9765C130.055 17.2222 128.255 16.3516 125.969 16.3516V17.3516C127.963 17.3516 129.445 18.0903 130.483 19.5547L131.299 18.9765ZM125.969 16.3516C124.459 16.3516 123.133 16.7031 122.012 17.4277C120.892 18.1519 120.009 19.2274 119.352 20.623L120.257 21.0488C120.85 19.7882 121.62 18.8716 122.555 18.2676C123.488 17.6641 124.619 17.3516 125.969 17.3516V16.3516ZM119.305 20.8359V31.8047H120.305V20.8359H119.305ZM119.357 32.0283C120.053 33.4202 120.958 34.492 122.084 35.2138C123.21 35.9367 124.528 36.2891 126.016 36.2891V35.2891C124.691 35.2891 123.567 34.9774 122.623 34.3721C121.678 33.7658 120.884 32.8454 120.252 31.5811L119.357 32.0283ZM126.016 36.2891C128.246 36.2891 130.018 35.4142 131.273 33.6667L130.461 33.0833C129.404 34.5546 127.942 35.2891 126.016 35.2891V36.2891ZM131.273 33.6667C132.518 31.9338 133.102 29.388 133.102 26.1094H132.102C132.102 29.2995 131.529 31.5975 130.461 33.0833L131.273 33.6667ZM158.078 39L157.631 39.2236L157.769 39.5H158.078V39ZM157.469 36.3281L157.965 36.2676L157.838 35.2238L157.109 35.9814L157.469 36.3281ZM144.086 37.3594L143.753 37.7325L143.757 37.7359L144.086 37.3594ZM144.695 25.8281L144.989 26.2326L144.99 26.2322L144.695 25.8281ZM157.398 23.625V24.125H157.898V23.625H157.398ZM156.039 18.0234L155.686 18.377L155.689 18.3801L156.039 18.0234ZM146.57 20.6719V21.1719H147.07V20.6719H146.57ZM142.211 20.6719H141.711V21.1719H142.211V20.6719ZM143.547 17.0156L143.149 16.7123L143.149 16.7131L143.547 17.0156ZM147.203 14.2031L147 13.7462L146.998 13.747L147.203 14.2031ZM159.156 15.375L158.825 15.7491L158.826 15.7508L159.156 15.375ZM161.734 21.3984H162.235L162.234 21.3862L161.734 21.3984ZM162.625 38.625H163.125V38.5217L163.084 38.4268L162.625 38.625ZM162.625 39V39.5H163.125V39H162.625ZM157.398 31.8984L157.848 32.117L157.898 32.0135V31.8984H157.398ZM157.398 26.6953H157.898V26.1953H157.398V26.6953ZM158.525 38.7764C158.317 38.3607 158.121 37.5469 157.965 36.2676L156.972 36.3887C157.129 37.6718 157.339 38.6393 157.631 39.2236L158.525 38.7764ZM157.109 35.9814C155.183 37.9815 152.905 38.9688 150.25 38.9688V39.9688C153.189 39.9688 155.723 38.8623 157.829 36.6749L157.109 35.9814ZM150.25 38.9688C147.849 38.9688 145.918 38.2963 144.415 36.9829L143.757 37.7359C145.473 39.235 147.651 39.9688 150.25 39.9688V38.9688ZM144.419 36.9863C142.933 35.6611 142.195 34.0009 142.195 31.9688H141.195C141.195 34.2804 142.051 36.2139 143.753 37.7325L144.419 36.9863ZM142.195 31.9688C142.195 29.4754 143.129 27.5844 144.989 26.2326L144.401 25.4236C142.262 26.9781 141.195 29.1808 141.195 31.9688H142.195ZM144.99 26.2322C146.889 24.8485 149.598 24.125 153.18 24.125V23.125C149.48 23.125 146.533 23.8702 144.401 25.424L144.99 26.2322ZM153.18 24.125H157.398V23.125H153.18V24.125ZM157.898 23.625V21.6328H156.898V23.625H157.898ZM157.898 21.6328C157.898 20.0109 157.41 18.6693 156.39 17.6668L155.689 18.3801C156.481 19.1588 156.898 20.2235 156.898 21.6328H157.898ZM156.393 17.6699C155.362 16.639 153.878 16.1641 152.031 16.1641V17.1641C153.715 17.1641 154.904 17.5953 155.686 18.377L156.393 17.6699ZM152.031 16.1641C150.397 16.1641 148.99 16.5782 147.842 17.4352L148.44 18.2367C149.385 17.5311 150.572 17.1641 152.031 17.1641V16.1641ZM147.842 17.4352C146.694 18.2919 146.07 19.3755 146.07 20.6719H147.07C147.07 19.7495 147.494 18.9425 148.44 18.2367L147.842 17.4352ZM146.57 20.1719H142.211V21.1719H146.57V20.1719ZM142.711 20.6719C142.711 19.5327 143.109 18.4178 143.945 17.3182L143.149 16.7131C142.203 17.9572 141.711 19.2798 141.711 20.6719H142.711ZM143.944 17.319C144.794 16.2055 145.943 15.3169 147.408 14.6593L146.998 13.747C145.401 14.4643 144.112 15.4508 143.149 16.7123L143.944 17.319ZM147.406 14.66C148.884 14.0034 150.509 13.6719 152.289 13.6719V12.6719C150.382 12.6719 148.616 13.0279 147 13.7462L147.406 14.66ZM152.289 13.6719C155.129 13.6719 157.286 14.3845 158.825 15.7491L159.488 15.0009C157.714 13.428 155.293 12.6719 152.289 12.6719V13.6719ZM158.826 15.7508C160.36 17.0966 161.175 18.9628 161.235 21.4106L162.234 21.3862C162.169 18.7091 161.265 16.5597 159.486 14.9992L158.826 15.7508ZM161.234 21.3984V33.0703H162.234V21.3984H161.234ZM161.234 33.0703C161.234 35.4328 161.534 37.3607 162.166 38.8232L163.084 38.4268C162.528 37.1393 162.234 35.3641 162.234 33.0703H161.234ZM162.125 38.625V39H163.125V38.625H162.125ZM162.625 38.5H158.078V39.5H162.625V38.5ZM150.883 36.1953C152.333 36.1953 153.708 35.8191 155 35.0737L154.5 34.2075C153.355 34.8684 152.151 35.1953 150.883 35.1953V36.1953ZM155 35.0737C156.294 34.3271 157.252 33.3429 157.848 32.117L156.949 31.6798C156.451 32.704 155.644 33.5479 154.5 34.2075L155 35.0737ZM157.898 31.8984V26.6953H156.898V31.8984H157.898ZM157.398 26.1953H154V27.1953H157.398V26.1953ZM154 26.1953C151.311 26.1953 149.213 26.5858 147.771 27.4298C146.288 28.298 145.531 29.6294 145.531 31.3594H146.531C146.531 29.98 147.103 28.9794 148.276 28.2929C149.49 27.5821 151.376 27.1953 154 27.1953V26.1953ZM145.531 31.3594C145.531 32.842 146.032 34.0537 147.068 34.9288L147.713 34.1649C146.937 33.5088 146.531 32.5955 146.531 31.3594H145.531ZM147.068 34.9288C148.082 35.7851 149.367 36.1953 150.883 36.1953V35.1953C149.555 35.1953 148.512 34.8399 147.713 34.1649L147.068 34.9288ZM173.242 39V39.5H173.742V39H173.242ZM168.906 39H168.406V39.5H168.906V39ZM168.906 3V2.5H168.406V3H168.906ZM173.242 3H173.742V2.5H173.242V3ZM173.242 38.5H168.906V39.5H173.242V38.5ZM169.406 39V3H168.406V39H169.406ZM168.906 3.5H173.242V2.5H168.906V3.5ZM172.742 3V39H173.742V3H172.742ZM184.914 39V39.5H185.414V39H184.914ZM180.578 39H180.078V39.5H180.578V39ZM180.578 3V2.5H180.078V3H180.578ZM184.914 3H185.414V2.5H184.914V3ZM184.914 38.5H180.578V39.5H184.914V38.5ZM181.078 39V3H180.078V39H181.078ZM180.578 3.5H184.914V2.5H180.578V3.5ZM184.414 3V39H185.414V3H184.414Z" fill="#383838"/>
<path d="M210.57 31.0547H197.352L194.586 39H188.422L201.312 4.875H206.633L219.547 39H213.359L210.57 31.0547ZM199.016 26.2734H208.906L203.961 12.1172L199.016 26.2734ZM221.82 26.1328C221.82 22.2266 222.727 19.0938 224.539 16.7344C226.352 14.3594 228.781 13.1719 231.828 13.1719C234.516 13.1719 236.688 14.1094 238.344 15.9844V3H244.039V39H238.883L238.602 36.375C236.898 38.4375 234.625 39.4688 231.781 39.4688C228.812 39.4688 226.406 38.2734 224.562 35.8828C222.734 33.4922 221.82 30.2422 221.82 26.1328ZM227.516 26.625C227.516 29.2031 228.008 31.2188 228.992 32.6719C229.992 34.1094 231.406 34.8281 233.234 34.8281C235.562 34.8281 237.266 33.7891 238.344 31.7109V20.8828C237.297 18.8516 235.609 17.8359 233.281 17.8359C231.438 17.8359 230.016 18.5703 229.016 20.0391C228.016 21.4922 227.516 23.6875 227.516 26.625ZM255.336 13.6406L255.5 16.2891C257.281 14.2109 259.719 13.1719 262.812 13.1719C266.203 13.1719 268.523 14.4688 269.773 17.0625C271.617 14.4688 274.211 13.1719 277.555 13.1719C280.352 13.1719 282.43 13.9453 283.789 15.4922C285.164 17.0391 285.867 19.3203 285.898 22.3359V39H280.203V22.5C280.203 20.8906 279.852 19.7109 279.148 18.9609C278.445 18.2109 277.281 17.8359 275.656 17.8359C274.359 17.8359 273.297 18.1875 272.469 18.8906C271.656 19.5781 271.086 20.4844 270.758 21.6094L270.781 39H265.086V22.3125C265.008 19.3281 263.484 17.8359 260.516 17.8359C258.234 17.8359 256.617 18.7656 255.664 20.625V39H249.969V13.6406H255.336ZM297.805 39H292.109V13.6406H297.805V39ZM291.758 7.05469C291.758 6.17969 292.031 5.45313 292.578 4.875C293.141 4.29687 293.938 4.00781 294.969 4.00781C296 4.00781 296.797 4.29687 297.359 4.875C297.922 5.45313 298.203 6.17969 298.203 7.05469C298.203 7.91406 297.922 8.63281 297.359 9.21094C296.797 9.77344 296 10.0547 294.969 10.0547C293.938 10.0547 293.141 9.77344 292.578 9.21094C292.031 8.63281 291.758 7.91406 291.758 7.05469ZM309.312 13.6406L309.477 16.5703C311.352 14.3047 313.812 13.1719 316.859 13.1719C322.141 13.1719 324.828 16.1953 324.922 22.2422V39H319.227V22.5703C319.227 20.9609 318.875 19.7734 318.172 19.0078C317.484 18.2266 316.352 17.8359 314.773 17.8359C312.477 17.8359 310.766 18.875 309.641 20.9531V39H303.945V13.6406H309.312Z" fill="#383838"/>
</g>
<defs>
<clipPath id="clip0">
<rect width="329" height="46" fill="white"/>
</clipPath>
</defs>
</svg>
