<svg width="196" height="39" viewBox="0 0 196 39" fill="none" xmlns="http://www.w3.org/2000/svg">
<path d="M20.7812 21.9297V22.9297H21.7812V21.9297H20.7812ZM6.46094 21.9297V20.9297H5.46094V21.9297H6.46094ZM6.46094 37V38H7.46094V37H6.46094ZM1.96094 37H0.960938V38H1.96094V37ZM1.96094 2.875V1.875H0.960938V2.875H1.96094ZM23.1016 2.875H24.1016V1.875H23.1016V2.875ZM23.1016 6.57812V7.57812H24.1016V6.57812H23.1016ZM6.46094 6.57812V5.57812H5.46094V6.57812H6.46094ZM6.46094 18.25H5.46094V19.25H6.46094V18.25ZM20.7812 18.25H21.7812V17.25H20.7812V18.25ZM20.7812 20.9297H6.46094V22.9297H20.7812V20.9297ZM5.46094 21.9297V37H7.46094V21.9297H5.46094ZM6.46094 36H1.96094V38H6.46094V36ZM2.96094 37V2.875H0.960938V37H2.96094ZM1.96094 3.875H23.1016V1.875H1.96094V3.875ZM22.1016 2.875V6.57812H24.1016V2.875H22.1016ZM23.1016 5.57812H6.46094V7.57812H23.1016V5.57812ZM5.46094 6.57812V18.25H7.46094V6.57812H5.46094ZM6.46094 19.25H20.7812V17.25H6.46094V19.25ZM19.7812 18.25V21.9297H21.7812V18.25H19.7812ZM27.6016 17.3828L26.7057 16.9384L26.7029 16.9441L27.6016 17.3828ZM31.6797 12.7891L31.1552 11.9377L31.1518 11.9398L31.6797 12.7891ZM46.0234 14.7578L45.276 15.4222L45.2785 15.4249L46.0234 14.7578ZM47.8047 31.2578L46.9046 30.8221L46.9032 30.8251L47.8047 31.2578ZM43.75 35.8281L43.2234 34.978L43.22 34.9801L43.75 35.8281ZM29.3359 33.8828L28.5885 34.5472L28.591 34.5499L29.3359 33.8828ZM32.4531 31.375L31.6575 31.9808L31.661 31.9854L32.4531 31.375ZM42.9531 31.3516L43.7514 31.9539L43.754 31.9504L42.9531 31.3516ZM42.9062 17.3359L42.1088 17.9394L42.115 17.9474L42.9062 17.3359ZM27.1484 24.0859C27.1484 21.7344 27.6061 19.653 28.5002 17.8215L26.7029 16.9441C25.6596 19.0813 25.1484 21.4687 25.1484 24.0859H27.1484ZM28.4974 17.8272C29.4064 15.9947 30.6445 14.61 32.2076 13.6383L31.1518 11.9398C29.2462 13.1243 27.7655 14.8021 26.7057 16.9384L28.4974 17.8272ZM32.2042 13.6405C33.7829 12.6679 35.5904 12.1719 37.6562 12.1719V10.1719C35.2534 10.1719 33.0765 10.754 31.1552 11.9377L32.2042 13.6405ZM37.6562 12.1719C40.8493 12.1719 43.3572 13.2635 45.276 15.4222L46.7708 14.0934C44.4397 11.4709 41.3694 10.1719 37.6562 10.1719V12.1719ZM45.2785 15.4249C47.2184 17.5914 48.2344 20.5135 48.2344 24.2969H50.2344C50.2344 20.1427 49.1097 16.7055 46.7684 14.0907L45.2785 15.4249ZM48.2344 24.2969V24.6016H50.2344V24.2969H48.2344ZM48.2344 24.6016C48.2344 26.9389 47.784 29.0057 46.9046 30.8221L48.7048 31.6936C49.7317 29.5724 50.2344 27.2017 50.2344 24.6016H48.2344ZM46.9032 30.8251C46.0445 32.614 44.8196 33.9892 43.2234 34.978L44.2766 36.6782C46.2117 35.4795 47.6899 33.8079 48.7062 31.6905L46.9032 30.8251ZM43.22 34.9801C41.6454 35.9643 39.8174 36.4688 37.7031 36.4688V38.4688C40.1514 38.4688 42.3546 37.8795 44.28 36.6761L43.22 34.9801ZM37.7031 36.4688C34.5272 36.4688 32.0171 35.3781 30.0809 33.2157L28.591 34.5499C30.936 37.1688 34.0041 38.4688 37.7031 38.4688V36.4688ZM30.0833 33.2184C28.1564 31.0506 27.1484 28.1422 27.1484 24.3906H25.1484C25.1484 28.514 26.2655 31.9337 28.5885 34.5472L30.0833 33.2184ZM27.1484 24.3906V24.0859H25.1484V24.3906H27.1484ZM29.5078 24.6016C29.5078 27.5642 30.1917 30.0559 31.6575 31.9808L33.2487 30.7692C32.1208 29.2879 31.5078 27.2639 31.5078 24.6016H29.5078ZM31.661 31.9854C33.1667 33.9392 35.2118 34.9297 37.7031 34.9297V32.9297C35.8195 32.9297 34.3646 32.2171 33.2452 30.7646L31.661 31.9854ZM37.7031 34.9297C40.2114 34.9297 42.2604 33.9298 43.7514 31.9539L42.1549 30.7492C41.0521 32.2108 39.6011 32.9297 37.7031 32.9297V34.9297ZM43.754 31.9504C45.2256 29.9823 45.8984 27.3203 45.8984 24.0859H43.8984C43.8984 27.0703 43.2744 29.2521 42.1523 30.7527L43.754 31.9504ZM45.8984 24.0859C45.8984 21.1461 45.1949 18.6622 43.6975 16.7245L42.115 17.9474C43.2739 19.4471 43.8984 21.4633 43.8984 24.0859H45.8984ZM43.7037 16.7325C42.2009 14.7467 40.1549 13.7344 37.6562 13.7344V15.7344C39.5326 15.7344 40.9866 16.4565 42.1088 17.9394L43.7037 16.7325ZM37.6562 13.7344C35.2038 13.7344 33.1853 14.7311 31.6845 16.6786L33.2686 17.8995C34.3928 16.4407 35.8274 15.7344 37.6562 15.7344V13.7344ZM31.6845 16.6786C30.1864 18.6225 29.5078 21.3096 29.5078 24.6016H31.5078C31.5078 21.5498 32.1417 19.3619 33.2686 17.8995L31.6845 16.6786ZM54.9766 17.3828L54.0807 16.9384L54.0779 16.9441L54.9766 17.3828ZM59.0547 12.7891L58.5302 11.9377L58.5268 11.9398L59.0547 12.7891ZM73.3984 14.7578L72.651 15.4222L72.6535 15.4249L73.3984 14.7578ZM75.1797 31.2578L74.2796 30.8221L74.2782 30.8251L75.1797 31.2578ZM71.125 35.8281L70.5984 34.978L70.595 34.9801L71.125 35.8281ZM56.7109 33.8828L55.9635 34.5472L55.966 34.5499L56.7109 33.8828ZM59.8281 31.375L59.0325 31.9808L59.036 31.9854L59.8281 31.375ZM70.3281 31.3516L71.1264 31.9539L71.129 31.9504L70.3281 31.3516ZM70.2812 17.3359L69.4838 17.9394L69.49 17.9474L70.2812 17.3359ZM54.5234 24.0859C54.5234 21.7344 54.9811 19.653 55.8752 17.8215L54.0779 16.9441C53.0346 19.0813 52.5234 21.4687 52.5234 24.0859H54.5234ZM55.8724 17.8272C56.7814 15.9947 58.0195 14.61 59.5826 13.6383L58.5268 11.9398C56.6212 13.1243 55.1405 14.8021 54.0807 16.9384L55.8724 17.8272ZM59.5792 13.6405C61.1579 12.6679 62.9654 12.1719 65.0312 12.1719V10.1719C62.6284 10.1719 60.4515 10.754 58.5302 11.9377L59.5792 13.6405ZM65.0312 12.1719C68.2243 12.1719 70.7322 13.2635 72.651 15.4222L74.1458 14.0934C71.8147 11.4709 68.7444 10.1719 65.0312 10.1719V12.1719ZM72.6535 15.4249C74.5934 17.5914 75.6094 20.5135 75.6094 24.2969H77.6094C77.6094 20.1427 76.4847 16.7055 74.1434 14.0907L72.6535 15.4249ZM75.6094 24.2969V24.6016H77.6094V24.2969H75.6094ZM75.6094 24.6016C75.6094 26.9389 75.159 29.0057 74.2796 30.8221L76.0798 31.6936C77.1067 29.5724 77.6094 27.2017 77.6094 24.6016H75.6094ZM74.2782 30.8251C73.4195 32.614 72.1946 33.9892 70.5984 34.978L71.6516 36.6782C73.5867 35.4795 75.0649 33.8079 76.0812 31.6905L74.2782 30.8251ZM70.595 34.9801C69.0204 35.9643 67.1924 36.4688 65.0781 36.4688V38.4688C67.5264 38.4688 69.7296 37.8795 71.655 36.6761L70.595 34.9801ZM65.0781 36.4688C61.9022 36.4688 59.3921 35.3781 57.4559 33.2157L55.966 34.5499C58.311 37.1688 61.3791 38.4688 65.0781 38.4688V36.4688ZM57.4583 33.2184C55.5314 31.0506 54.5234 28.1422 54.5234 24.3906H52.5234C52.5234 28.514 53.6405 31.9337 55.9635 34.5472L57.4583 33.2184ZM54.5234 24.3906V24.0859H52.5234V24.3906H54.5234ZM56.8828 24.6016C56.8828 27.5642 57.5667 30.0559 59.0325 31.9808L60.6237 30.7692C59.4958 29.2879 58.8828 27.2639 58.8828 24.6016H56.8828ZM59.036 31.9854C60.5417 33.9392 62.5868 34.9297 65.0781 34.9297V32.9297C63.1945 32.9297 61.7396 32.2171 60.6202 30.7646L59.036 31.9854ZM65.0781 34.9297C67.5864 34.9297 69.6354 33.9298 71.1264 31.9539L69.5299 30.7492C68.4271 32.2108 66.9761 32.9297 65.0781 32.9297V34.9297ZM71.129 31.9504C72.6006 29.9823 73.2734 27.3203 73.2734 24.0859H71.2734C71.2734 27.0703 70.6494 29.2521 69.5273 30.7527L71.129 31.9504ZM73.2734 24.0859C73.2734 21.1461 72.5699 18.6622 71.0725 16.7245L69.49 17.9474C70.6489 19.4471 71.2734 21.4633 71.2734 24.0859H73.2734ZM71.0787 16.7325C69.5759 14.7467 67.5299 13.7344 65.0312 13.7344V15.7344C66.9076 15.7344 68.3616 16.4565 69.4838 17.9394L71.0787 16.7325ZM65.0312 13.7344C62.5788 13.7344 60.5603 14.7311 59.0595 16.6786L60.6436 17.8995C61.7678 16.4407 63.2024 15.7344 65.0312 15.7344V13.7344ZM59.0595 16.6786C57.5614 18.6225 56.8828 21.3096 56.8828 24.6016H58.8828C58.8828 21.5498 59.5167 19.3619 60.6436 17.8995L59.0595 16.6786ZM83.7578 14.7344L84.5458 15.3501L84.5477 15.3476L83.7578 14.7344ZM98.0547 14.2188L97.2942 14.8681L99.0547 16.9299V14.2188H98.0547ZM98.0547 1V0H97.0547V1H98.0547ZM102.391 1H103.391V0H102.391V1ZM102.391 37V38H103.391V37H102.391ZM98.4062 37L97.4092 37.0774L97.4808 38H98.4062V37ZM98.1953 34.2812L99.1923 34.2039L98.9992 31.7148L97.4206 33.6489L98.1953 34.2812ZM83.7578 33.8594L82.964 34.4676L82.9665 34.4708L83.7578 33.8594ZM98.0547 30.0859L98.9446 30.5421L99.0547 30.3273V30.0859H98.0547ZM98.0547 18.4375H99.0547V18.1837L98.9337 17.9607L98.0547 18.4375ZM81.9922 24.1094C81.9922 20.3746 82.8758 17.4871 84.5458 15.3501L82.9699 14.1186C80.9523 16.7004 79.9922 20.0629 79.9922 24.1094H81.9922ZM84.5477 15.3476C86.2037 13.2145 88.3272 12.1719 91 12.1719V10.1719C87.704 10.1719 84.9994 11.5043 82.9679 14.1212L84.5477 15.3476ZM91 12.1719C93.7128 12.1719 95.7724 13.0858 97.2942 14.8681L98.8152 13.5694C96.8682 11.2892 94.2247 10.1719 91 10.1719V12.1719ZM99.0547 14.2188V1H97.0547V14.2188H99.0547ZM98.0547 2H102.391V0H98.0547V2ZM101.391 1V37H103.391V1H101.391ZM102.391 36H98.4062V38H102.391V36ZM99.4033 36.9226L99.1923 34.2039L97.1983 34.3586L97.4092 37.0774L99.4033 36.9226ZM97.4206 33.6489C95.9019 35.5096 93.7899 36.4688 90.9531 36.4688V38.4688C94.3039 38.4688 97.0199 37.3029 98.97 34.9136L97.4206 33.6489ZM90.9531 36.4688C88.3378 36.4688 86.2269 35.4192 84.5491 33.2479L82.9665 34.4708C85.0075 37.1121 87.6934 38.4688 90.9531 38.4688V36.4688ZM84.5516 33.2512C82.8749 31.0629 81.9922 28.1544 81.9922 24.4375H79.9922C79.9922 28.4706 80.9533 31.8434 82.964 34.4676L84.5516 33.2512ZM81.9922 24.4375V24.1094H79.9922V24.4375H81.9922ZM84.3281 24.6016C84.3281 27.6009 84.9459 30.0859 86.302 31.9416L87.9168 30.7615C86.8978 29.3672 86.3281 27.3522 86.3281 24.6016H84.3281ZM86.302 31.9416C87.6865 33.8362 89.6335 34.7891 92.0312 34.7891V32.7891C90.2415 32.7891 88.9072 32.1169 87.9168 30.7615L86.302 31.9416ZM92.0312 34.7891C93.5598 34.7891 94.9372 34.4444 96.1233 33.7152C97.309 32.9863 98.2432 31.9103 98.9446 30.5421L97.1648 29.6297C96.6006 30.7304 95.8981 31.5059 95.0759 32.0114C94.2542 32.5166 93.2527 32.7891 92.0312 32.7891V34.7891ZM99.0547 30.0859V18.4375H97.0547V30.0859H99.0547ZM98.9337 17.9607C98.2147 16.6353 97.2763 15.5949 96.1024 14.8906C94.9279 14.1858 93.5743 13.8516 92.0781 13.8516V15.8516C93.2695 15.8516 94.2557 16.1149 95.0734 16.6055C95.8917 17.0965 96.5978 17.8491 97.1757 18.9143L98.9337 17.9607ZM92.0781 13.8516C89.651 13.8516 87.6855 14.811 86.2993 16.7262L87.9194 17.8988C88.9082 16.5327 90.2553 15.8516 92.0781 15.8516V13.8516ZM86.2993 16.7262C84.9348 18.6114 84.3281 21.287 84.3281 24.6016H86.3281C86.3281 21.4786 86.909 19.2949 87.9194 17.8988L86.2993 16.7262ZM109.891 32.8516L109.15 32.18L109.144 32.1865L109.138 32.1931L109.891 32.8516ZM113.922 32.8516L113.181 33.5231L113.187 33.5293L113.192 33.5355L113.922 32.8516ZM113.922 36.5312L113.203 35.8358L113.197 35.8419L113.192 35.8481L113.922 36.5312ZM109.891 36.5312L109.149 37.2015L109.154 37.208L109.16 37.2144L109.891 36.5312ZM110.234 34.7266C110.234 34.1854 110.386 33.8041 110.643 33.5101L109.138 32.1931C108.52 32.899 108.234 33.7677 108.234 34.7266H110.234ZM110.632 33.5231C110.84 33.2936 111.203 33.1016 111.906 33.1016V31.1016C110.828 31.1016 109.848 31.4095 109.15 32.18L110.632 33.5231ZM111.906 33.1016C112.61 33.1016 112.973 33.2936 113.181 33.5231L114.663 32.18C113.965 31.4095 112.984 31.1016 111.906 31.1016V33.1016ZM113.192 33.5355C113.47 33.832 113.625 34.2045 113.625 34.7266H115.625C115.625 33.7486 115.311 32.8712 114.651 32.1676L113.192 33.5355ZM113.625 34.7266C113.625 35.2047 113.479 35.5512 113.203 35.8358L114.64 37.2267C115.302 36.5426 115.625 35.6859 115.625 34.7266H113.625ZM113.192 35.8481C112.986 36.068 112.619 36.2578 111.906 36.2578V38.2578C112.975 38.2578 113.952 37.9632 114.652 37.2144L113.192 35.8481ZM111.906 36.2578C111.194 36.2578 110.827 36.068 110.621 35.8481L109.16 37.2144C109.861 37.9632 110.838 38.2578 111.906 38.2578V36.2578ZM110.633 35.861C110.379 35.5795 110.234 35.2248 110.234 34.7266H108.234C108.234 35.6659 108.528 36.5142 109.149 37.2015L110.633 35.861ZM122.477 37H121.477V38H122.477V37ZM122.477 2.875V1.875H121.477V2.875H122.477ZM141.977 5.17188L141.341 5.94381L141.344 5.94641L141.977 5.17188ZM143.43 16.2109L144.232 16.8077L144.236 16.8027L143.43 16.2109ZM139.727 19.0469L139.332 18.1282L136.729 19.2471L139.457 20.0099L139.727 19.0469ZM144.086 22L143.279 22.5903L143.286 22.6L144.086 22ZM126.977 21.0391V20.0391H125.977V21.0391H126.977ZM126.977 33.3203H125.977V34.3203H126.977V33.3203ZM139.352 31.7031L140.019 32.4479L140.019 32.4474L139.352 31.7031ZM126.977 17.4297H125.977V18.4297H126.977V17.4297ZM138.484 15.9531L137.846 15.1832L137.841 15.1874L138.484 15.9531ZM138.625 7.86719L138.007 8.65354L138.014 8.65897L138.625 7.86719ZM126.977 6.57812V5.57812H125.977V6.57812H126.977ZM123.477 37V2.875H121.477V37H123.477ZM122.477 3.875H133.633V1.875H122.477V3.875ZM133.633 3.875C137.223 3.875 139.735 4.62101 141.341 5.94381L142.612 4.39994C140.5 2.66024 137.449 1.875 133.633 1.875V3.875ZM141.344 5.94641C142.932 7.243 143.789 9.1903 143.789 11.9688H145.789C145.789 8.7472 144.771 6.16325 142.609 4.39734L141.344 5.94641ZM143.789 11.9688C143.789 13.3589 143.398 14.5637 142.624 15.6191L144.236 16.8027C145.273 15.3894 145.789 13.7661 145.789 11.9688H143.789ZM142.627 15.6142C141.838 16.6753 140.752 17.5174 139.332 18.1282L140.122 19.9655C141.826 19.2326 143.209 18.1841 144.232 16.8076L142.627 15.6142ZM139.457 20.0099C141.1 20.4692 142.357 21.3302 143.279 22.5902L144.893 21.4098C143.69 19.7636 142.041 18.6558 139.996 18.0838L139.457 20.0099ZM143.286 22.6C144.22 23.8449 144.703 25.3469 144.703 27.1562H146.703C146.703 24.9656 146.109 23.0301 144.886 21.4L143.286 22.6ZM144.703 27.1562C144.703 29.9817 143.799 32.0955 142.065 33.625L143.388 35.125C145.622 33.1545 146.703 30.4558 146.703 27.1562H144.703ZM142.065 33.625C140.322 35.1627 137.784 36 134.312 36V38C138.091 38 141.163 37.0873 143.388 35.125L142.065 33.625ZM134.312 36H122.477V38H134.312V36ZM125.977 21.0391V33.3203H127.977V21.0391H125.977ZM126.977 34.3203H134.406V32.3203H126.977V34.3203ZM134.406 34.3203C136.671 34.3203 138.583 33.7343 140.019 32.4479L138.684 30.9584C137.714 31.8282 136.329 32.3203 134.406 32.3203V34.3203ZM140.019 32.4474C141.485 31.1322 142.18 29.3421 142.18 27.2031H140.18C140.18 28.8766 139.656 30.0865 138.684 30.9589L140.019 32.4474ZM142.18 27.2031C142.18 24.9717 141.569 23.1207 140.181 21.844C138.808 20.5819 136.845 20.0391 134.477 20.0391V22.0391C136.577 22.0391 137.965 22.5236 138.827 23.3162C139.673 24.0941 140.18 25.3251 140.18 27.2031H142.18ZM134.477 20.0391H126.977V22.0391H134.477V20.0391ZM126.977 18.4297H133.773V16.4297H126.977V18.4297ZM133.773 18.4297C135.909 18.4297 137.729 17.8935 139.128 16.7188L137.841 15.1874C136.896 15.9815 135.576 16.4297 133.773 16.4297V18.4297ZM139.123 16.723C140.563 15.5293 141.266 13.8987 141.266 11.9453H139.266C139.266 13.3669 138.781 14.4082 137.846 15.1832L139.123 16.723ZM141.266 11.9453C141.266 9.87908 140.656 8.17082 139.236 7.07541L138.014 8.65897C138.782 9.25105 139.266 10.2615 139.266 11.9453H141.266ZM139.243 7.08087C137.894 6.02127 135.965 5.57812 133.633 5.57812V7.57812C135.769 7.57812 137.168 7.99435 138.007 8.65351L139.243 7.08087ZM133.633 5.57812H126.977V7.57812H133.633V5.57812ZM125.977 6.57812V17.4297H127.977V6.57812H125.977ZM167.359 37L166.465 37.4472L166.741 38H167.359V37ZM166.75 34.3281L167.743 34.2071L167.488 32.1196L166.03 33.6346L166.75 34.3281ZM153.367 35.3594L152.701 36.1056L152.709 36.1124L153.367 35.3594ZM153.977 23.8281L154.564 24.6371L154.565 24.6363L153.977 23.8281ZM166.68 21.625V22.625H167.68V21.625H166.68ZM165.32 16.0234L164.613 16.7306L164.619 16.7367L165.32 16.0234ZM155.852 18.6719V19.6719H156.852V18.6719H155.852ZM151.492 18.6719H150.492V19.6719H151.492V18.6719ZM152.828 15.0156L152.033 14.409L152.032 14.4105L152.828 15.0156ZM156.484 12.2031L156.078 11.2893L156.075 11.2909L156.484 12.2031ZM168.438 13.375L167.774 14.1232L167.778 14.1267L168.438 13.375ZM171.016 19.3984H172.016V19.3862L172.015 19.3741L171.016 19.3984ZM171.906 36.625H172.906V36.4183L172.824 36.2286L171.906 36.625ZM171.906 37V38H172.906V37H171.906ZM166.68 29.8984L167.579 30.3356L167.68 30.1286V29.8984H166.68ZM166.68 24.6953H167.68V23.6953H166.68V24.6953ZM168.254 36.5528C168.088 36.2213 167.898 35.4845 167.743 34.2071L165.757 34.4492C165.914 35.7342 166.131 36.7787 166.465 37.4472L168.254 36.5528ZM166.03 33.6346C164.194 35.5411 162.045 36.4688 159.531 36.4688V38.4688C162.612 38.4688 165.275 37.3026 167.47 35.0217L166.03 33.6346ZM159.531 36.4688C157.23 36.4688 155.422 35.8269 154.025 34.6063L152.709 36.1124C154.531 37.7043 156.833 38.4688 159.531 38.4688V36.4688ZM154.033 34.6132C152.656 33.3847 151.977 31.8611 151.977 29.9688H149.977C149.977 32.4201 150.891 34.4903 152.701 36.1056L154.033 34.6132ZM151.977 29.9688C151.977 27.6227 152.843 25.8876 154.564 24.6371L153.389 23.0191C151.11 24.6749 149.977 27.0336 149.977 29.9688H151.977ZM154.565 24.6363C156.348 23.3377 158.939 22.625 162.461 22.625V20.625C158.702 20.625 155.637 21.381 153.388 23.0199L154.565 24.6363ZM162.461 22.625H166.68V20.625H162.461V22.625ZM167.68 21.625V19.6328H165.68V21.625H167.68ZM167.68 19.6328C167.68 17.9046 167.155 16.4245 166.021 15.3102L164.619 16.7367C165.298 17.4036 165.68 18.3298 165.68 19.6328H167.68ZM166.027 15.3163C164.872 14.1609 163.241 13.6641 161.312 13.6641V15.6641C162.915 15.6641 163.956 16.0735 164.613 16.7305L166.027 15.3163ZM161.312 13.6641C159.591 13.6641 158.074 14.1018 156.824 15.0345L158.02 16.6374C158.864 16.0076 159.94 15.6641 161.312 15.6641V13.6641ZM156.824 15.0345C155.575 15.9666 154.852 17.1885 154.852 18.6719H156.852C156.852 17.9365 157.175 17.2678 158.02 16.6374L156.824 15.0345ZM155.852 17.6719H151.492V19.6719H155.852V17.6719ZM152.492 18.6719C152.492 17.6592 152.843 16.6481 153.624 15.6207L152.032 14.4105C151.032 15.7269 150.492 17.1533 150.492 18.6719H152.492ZM153.623 15.6223C154.416 14.5828 155.496 13.7433 156.894 13.1154L156.075 11.2909C154.411 12.038 153.052 13.0734 152.033 14.409L153.623 15.6223ZM156.891 13.1169C158.298 12.4912 159.854 12.1719 161.57 12.1719V10.1719C159.599 10.1719 157.764 10.5401 156.078 11.2893L156.891 13.1169ZM161.57 12.1719C164.327 12.1719 166.353 12.8627 167.774 14.1232L169.101 12.6268C167.21 10.9498 164.657 10.1719 161.57 10.1719V12.1719ZM167.778 14.1267C169.189 15.365 169.959 17.0897 170.016 19.4228L172.015 19.3741C171.947 16.5822 170.998 14.2913 169.097 12.6233L167.778 14.1267ZM170.016 19.3984V31.0703H172.016V19.3984H170.016ZM170.016 31.0703C170.016 33.4672 170.319 35.4713 170.988 37.0214L172.824 36.2286C172.306 35.0287 172.016 33.3297 172.016 31.0703H170.016ZM170.906 36.625V37H172.906V36.625H170.906ZM171.906 36H167.359V38H171.906V36ZM160.164 34.6953C161.705 34.6953 163.166 34.2944 164.531 33.5068L163.532 31.7744C162.459 32.3931 161.342 32.6953 160.164 32.6953V34.6953ZM164.531 33.5068C165.9 32.7168 166.934 31.6623 167.579 30.3356L165.78 29.4612C165.331 30.3846 164.6 31.1582 163.532 31.7744L164.531 33.5068ZM167.68 29.8984V24.6953H165.68V29.8984H167.68ZM166.68 23.6953H163.281V25.6953H166.68V23.6953ZM163.281 23.6953C160.56 23.6953 158.355 24.0877 156.8 24.9983C155.161 25.9573 154.312 27.4541 154.312 29.3594H156.312C156.312 28.1553 156.792 27.32 157.81 26.7244C158.91 26.0803 160.69 25.6953 163.281 25.6953V23.6953ZM154.312 29.3594C154.312 30.9652 154.861 32.3262 156.027 33.3108L157.317 31.783C156.67 31.2363 156.312 30.4723 156.312 29.3594H154.312ZM156.027 33.3108C157.147 34.2577 158.555 34.6953 160.164 34.6953V32.6953C158.929 32.6953 158.009 32.3673 157.317 31.783L156.027 33.3108ZM182.523 37V38H183.523V37H182.523ZM178.188 37H177.188V38H178.188V37ZM178.188 1V0H177.188V1H178.188ZM182.523 1H183.523V0H182.523V1ZM182.523 36H178.188V38H182.523V36ZM179.188 37V1H177.188V37H179.188ZM178.188 2H182.523V0H178.188V2ZM181.523 1V37H183.523V1H181.523ZM194.195 37V38H195.195V37H194.195ZM189.859 37H188.859V38H189.859V37ZM189.859 1V0H188.859V1H189.859ZM194.195 1H195.195V0H194.195V1ZM194.195 36H189.859V38H194.195V36ZM190.859 37V1H188.859V37H190.859ZM189.859 2H194.195V0H189.859V2ZM193.195 1V37H195.195V1H193.195Z" fill="#383838"/>
</svg>
