<svg width="100" height="100" viewBox="0 0 100 100" fill="none" xmlns="http://www.w3.org/2000/svg">
<g clip-path="url(#clip0)">
<path d="M48.7509 25.1036C47.8056 25.4149 46.788 25.6856 45.693 25.911C45.693 25.911 45.0875 24.4527 44.7057 22.1939C43.858 17.1731 44.1153 8.19134 54.589 2.46075C55.2147 2.11927 55.8775 1.78804 56.5771 1.47007C57.9378 0.852786 59.5239 1.66189 59.8333 3.12339C59.9678 3.76251 60.1007 4.49586 60.21 5.29993C61.0143 11.3265 60.3819 21.2754 48.7509 25.1036Z" fill="#368B4C"/>
<path d="M44.7057 22.1939C43.858 17.1732 44.1153 8.19135 54.589 2.46075C54.6142 2.61881 54.6377 2.7804 54.6597 2.94518C55.4267 8.70097 54.8851 18.0326 44.7057 22.1939Z" fill="#3FA45A"/>
<path d="M33.8047 34.4202C25.3426 48.8314 12.7984 43.5046 7.675 40.4534C6.39172 39.6882 6.13759 37.927 7.16035 36.8389C8.01984 35.924 8.87934 35.1166 9.73548 34.4084C20.083 25.8369 29.9243 31.581 32.8965 33.7154C33.4853 34.1393 33.8047 34.4202 33.8047 34.4202Z" fill="#368B4C"/>
<path d="M32.8965 33.7154C24.7994 41.9487 14.8017 37.6008 10.3663 34.9583C10.1157 34.8087 9.90373 34.6219 9.7356 34.4084C20.0831 25.8369 29.9244 31.581 32.8965 33.7154Z" fill="#3FA45A"/>
<path d="M40.1425 31.1673C26.3131 40.551 17.2692 30.3548 13.9523 25.3981C13.1213 24.1568 13.6496 22.4579 15.0406 21.9131C16.0919 21.501 17.1061 21.1696 18.0833 20.9089C29.5848 17.8343 36.0116 24.6278 38.6709 28.5838C39.6749 30.0773 40.1425 31.1673 40.1425 31.1673Z" fill="#4CBA68"/>
<path d="M38.6708 28.5837C28.3148 32.5229 21.2789 25.3628 18.0832 20.9089C29.5847 17.8341 36.0115 24.6276 38.6708 28.5837Z" fill="#64C37D"/>
<path d="M40.6637 30.8705C53.9717 20.7611 47.1969 8.93495 43.5585 4.20898C42.6474 3.02513 40.869 2.98331 39.9084 4.12751C39.1822 4.99222 38.5445 5.84751 37.9853 6.69038C31.3994 16.6083 35.7854 24.8678 38.6854 28.6508C39.78 30.0795 40.6637 30.8705 40.6637 30.8705Z" fill="#4CBA68"/>
<path d="M38.6852 28.6509C45.7246 20.0946 41.1856 11.141 37.9851 6.69054C31.3994 16.6083 35.7854 24.8678 38.6852 28.6509Z" fill="#64C37D"/>
<path d="M79.9148 77.0082C79.7316 77.5094 79.5179 77.9904 79.274 78.453C77.1008 82.5807 72.6352 85.0851 67.8869 84.7C49.5986 83.2114 33.0799 71.5351 33.0799 71.5351C19.9167 62.7988 18.2819 43.8311 29.97 35.4665L30.3686 35.1823L38.9012 29.0732L47.8326 22.6817C59.5207 14.3172 76.978 21.9735 80.9695 37.2595C85.6824 55.3004 82.8094 69.0876 79.9148 77.0082Z" fill="#C70024"/>
<path d="M79.9148 77.0082C79.7316 77.5094 79.5179 77.9904 79.274 78.453C77.3363 79.4773 75.1044 79.9668 72.8067 79.7801C54.5185 78.2916 37.9997 66.6153 37.9997 66.6153C26.9004 59.2481 23.9972 44.6082 30.3686 35.1823L38.9012 29.0732L47.8326 22.6817C59.5207 14.3172 76.9781 21.9735 80.9695 37.2595C85.6824 55.3004 82.8094 69.0876 79.9148 77.0082Z" fill="#FF0C38"/>
<path d="M31.5673 53.4953C30.8867 53.9823 31.046 55.3708 31.9232 56.5964C32.8004 57.8221 34.0632 58.4208 34.7438 57.9337C35.4244 57.4466 35.2651 56.0581 34.3879 54.8325C33.5107 53.6069 32.2479 53.0082 31.5673 53.4953Z" fill="black"/>
<path d="M40.2899 44.0103C40.9705 43.5232 40.8112 42.1347 39.934 40.9091C39.0568 39.6835 37.794 39.0848 37.1134 39.5719C36.4328 40.059 36.5921 41.4474 37.4693 42.673C38.3465 43.8987 39.6093 44.4974 40.2899 44.0103Z" fill="black"/>
<path d="M50.7494 48.5143C50.0689 49.0014 50.2282 50.3899 51.1054 51.6155C51.9826 52.8412 53.2454 53.4399 53.926 52.9528C54.6066 52.4657 54.4472 51.0772 53.57 49.8516C52.6929 48.6259 51.43 48.0272 50.7494 48.5143Z" fill="black"/>
<path d="M73.3512 32.2663C74.0318 31.7792 73.8724 30.3907 72.9953 29.1651C72.1181 27.9395 70.8553 27.3408 70.1747 27.8279C69.4941 28.315 69.6534 29.7034 70.5306 30.929C71.4078 32.1547 72.6706 32.7534 73.3512 32.2663Z" fill="black"/>
<path d="M68.8851 46.0288C68.0079 44.8032 66.7451 44.2045 66.0645 44.6916C65.3839 45.1787 65.5432 46.5671 66.4204 47.7927C67.2976 49.0184 68.5604 49.6171 69.241 49.13C69.9216 48.6429 69.7622 47.2544 68.8851 46.0288Z" fill="black"/>
<path d="M74.6033 58.9152C73.9227 59.4023 74.082 60.7908 74.9592 62.0164C75.8364 63.2421 77.0992 63.8408 77.7798 63.3537C78.4604 62.8666 78.301 61.4781 77.4239 60.2525C76.5467 59.0268 75.2839 58.4281 74.6033 58.9152Z" fill="black"/>
<path d="M59.073 70.9415C59.7536 70.4544 59.5943 69.066 58.7171 67.8403C57.8399 66.6147 56.5771 66.016 55.8965 66.5031C55.2159 66.9902 55.3753 68.3786 56.2524 69.6043C57.1296 70.8299 58.3924 71.4286 59.073 70.9415Z" fill="black"/>
<path d="M72.2108 77.9765C72.8914 77.4894 72.7321 76.101 71.8549 74.8754C70.9777 73.6497 69.7149 73.051 69.0343 73.5381C68.3537 74.0252 68.513 75.4137 69.3902 76.6393C70.2674 77.8649 71.5302 78.4636 72.2108 77.9765Z" fill="black"/>
<path d="M41.8043 71.0906C42.4849 70.6035 42.3255 69.215 41.4483 67.9894C40.5712 66.7638 39.3083 66.1651 38.6277 66.6522C37.9471 67.1393 38.1065 68.5277 38.9837 69.7533C39.8608 70.979 41.1237 71.5777 41.8043 71.0906Z" fill="black"/>
<path d="M57.1102 34.4239C57.7908 33.9368 57.6315 32.5483 56.7543 31.3227C55.8771 30.097 54.6143 29.4983 53.9337 29.9854C53.2531 30.4725 53.4124 31.861 54.2896 33.0866C55.1668 34.3123 56.4296 34.911 57.1102 34.4239Z" fill="black"/>
<path d="M83.383 59.7559C82.685 59.7038 82.0828 60.2252 82.0307 60.9197C81.6187 66.4451 80.5086 71.7131 78.7306 76.5756C77.2219 80.7033 73.249 83.4768 68.8474 83.4768C68.5632 83.4768 68.2738 83.465 67.9895 83.4415C50.2715 82 33.9697 70.6198 33.8082 70.5054C33.7982 70.497 33.7881 70.4903 33.778 70.4835C29.4906 67.6393 26.226 63.4057 24.5809 58.565C24.3572 57.9057 23.6406 57.5525 22.9813 57.7762C22.322 57.9999 21.9688 58.7165 22.1925 59.3758C24.0125 64.738 27.6253 69.424 32.3669 72.5759C32.695 72.8064 36.7737 75.6439 43.0761 78.695C49.0269 81.5745 58.1434 85.1724 67.7845 85.9561C68.1377 85.9847 68.4943 85.9998 68.8475 85.9998C74.3055 85.9998 79.2287 82.5602 81.0992 77.4418C82.9577 72.3606 84.1167 66.8638 84.5472 61.108C84.5975 60.4137 84.0778 59.8081 83.383 59.7559Z" fill="black"/>
<path d="M22.4228 55.3121C23.1142 55.2313 23.6103 54.6056 23.5295 53.9128C23.4319 53.0768 23.3816 52.2307 23.3816 51.4016C23.3816 48.5552 23.9718 45.8834 24.9119 43.7342C27.1187 38.5841 31.012 36.3224 31.1254 36.1899L31.2092 36.1313C31.2099 36.1307 31.2111 36.1299 31.2124 36.1289C31.2113 36.1297 31.2102 36.1306 31.2092 36.1311L31.2094 36.1309C31.2128 36.1286 31.2153 36.1267 31.2175 36.1252C31.2193 36.1239 31.221 36.1227 31.2235 36.1208C31.223 36.1212 31.2223 36.1217 31.2215 36.1224C31.2238 36.1207 31.2245 36.1202 31.2242 36.1205C31.4031 35.9925 33.2606 34.6629 48.5658 23.7079C59.5404 15.85 75.983 23.159 79.7499 37.5793C81.3729 43.7943 82.2005 49.9823 82.2089 55.9752C82.2106 56.6716 82.7758 57.235 83.4704 57.235C84.1652 57.235 84.7335 56.6718 84.7318 55.9719C84.7217 49.7653 83.8673 43.362 82.1903 36.9419C79.4048 26.278 70.0026 18.4517 59.6096 17.9994C60.6794 15.9777 61.236 13.8853 61.4984 11.9745C61.5943 11.2831 61.1115 10.6474 60.4202 10.5531C59.7305 10.4572 59.0947 10.94 58.9988 11.6297C58.6573 14.1106 57.8669 16.2602 56.6323 18.0783C54.1009 18.3289 51.6705 19.0505 49.4451 20.2127C49.5376 19.7551 49.6099 19.2944 49.6621 18.8285C49.7412 18.1354 49.2417 17.5114 48.5503 17.4341C47.8556 17.3567 47.2333 17.8546 47.156 18.5476C47.0097 19.8512 46.6682 21.1177 46.1334 22.3456L39.281 27.2502C38.87 26.678 38.5406 26.2804 38.4232 26.1317C37.0675 23.9149 35.7622 20.8469 35.7622 17.2425C35.7622 13.0863 37.4812 8.9435 40.8721 4.92871C41.1496 4.59898 41.5045 4.55027 41.6913 4.55027C42.0328 4.55027 42.3489 4.70497 42.5559 4.97574C43.4506 6.14648 44.5003 7.71061 45.3782 9.54566C46.0463 10.9336 46.5794 12.4067 46.9021 13.9323C47.0467 14.6136 47.7162 15.0492 48.3973 14.9062C49.0786 14.7616 49.5141 14.0921 49.3712 13.4093C49.0971 12.121 48.7002 10.8948 48.2292 9.74924C49.9482 7.1254 52.7235 4.60402 57.0983 2.6193C57.2395 2.55531 57.3875 2.52339 57.5373 2.52339C57.9747 2.52339 58.4793 2.81936 58.5987 3.38457C58.8443 4.54507 59.0158 5.71749 59.1083 6.86623C59.1638 7.56095 59.7693 8.07896 60.4657 8.02336C61.1604 7.96793 61.6784 7.36073 61.6228 6.66601C61.5219 5.40792 61.3353 4.12783 61.0677 2.86135C60.7165 1.20266 59.2313 0 57.5377 0C57.0264 0 56.5268 0.107668 56.0558 0.321324C51.8375 2.23382 48.936 4.60705 46.9714 7.12826C46.1742 5.68003 45.3181 4.4337 44.5611 3.44302C43.8714 2.54321 42.827 2.02671 41.6917 2.02671C40.6303 2.02671 39.6278 2.49098 38.945 3.29991C35.1589 7.78233 33.2398 12.4735 33.2398 17.2418C33.2398 17.8927 33.2784 18.5268 33.3458 19.1441L27.7899 11.3821C27.3846 10.8152 26.5956 10.6857 26.0289 11.0895C25.4637 11.4965 25.3325 12.2837 25.738 12.8504L31.1859 20.4614C27.2047 18.6717 21.7079 17.9486 14.5797 20.7389C13.5621 21.1375 12.7883 21.9651 12.4604 23.0112C12.1307 24.0609 12.2939 25.1878 12.9045 26.0993C13.5688 27.0917 14.4772 28.3179 15.6209 29.5709C12.3074 30.7163 9.16871 32.8559 6.24051 35.9742C5.61315 36.6419 5.26831 37.515 5.26831 38.4316C5.26831 39.7182 5.92591 40.8789 7.02929 41.5365C8.14444 42.2008 9.2999 42.7929 10.4606 43.2941C11.1014 43.5699 11.8431 43.2756 12.1191 42.6365C12.3949 41.9957 12.1006 41.254 11.4615 40.978C10.4001 40.5188 9.34222 39.9772 8.32114 39.3683C7.98806 39.1715 7.79137 38.8218 7.79137 38.4314C7.79137 38.2396 7.84008 37.9571 8.08061 37.7014C11.0829 34.504 14.3007 32.4586 17.6797 31.5907C20.4209 33.9876 23.6152 35.6734 27.1845 36.1287C25.3396 37.8694 23.863 39.9446 22.8017 42.2569C20.577 42.8628 18.2782 42.8497 16.006 42.4093C15.3214 42.2781 14.6605 42.7239 14.5276 43.4083C14.3947 44.093 14.8422 44.7539 15.5267 44.8868C16.7696 45.1273 18.0025 45.2501 19.1901 45.2501H19.1917C20.068 45.2501 20.9225 45.1861 21.7551 45.06C21.1664 47.0615 20.8587 49.191 20.8587 51.4011C20.8587 52.328 20.9141 53.2715 21.0234 54.205C21.1041 54.8984 21.7314 55.3929 22.4228 55.3121ZM21.1647 31.1134C20.1522 30.422 19.2388 29.6433 18.4248 28.8478C16.9312 27.3844 15.7806 25.8606 15.0003 24.6966C14.817 24.4225 14.7681 24.0827 14.8691 23.7664C14.9262 23.5831 15.0844 23.2501 15.4998 23.0868C18.4013 21.9515 21.1395 21.3846 23.7012 21.3846C28.5804 21.3846 32.7423 23.4797 35.9562 27.127L36.915 28.4675C36.989 28.5752 37.0629 28.6812 37.137 28.7838L30.2896 33.6851C27.2012 33.9438 24.1317 33.1444 21.1647 31.1134Z" fill="black"/>
<path d="M31.2245 36.1202C31.2242 36.1204 31.2238 36.1206 31.2235 36.1209C31.224 36.1204 31.2242 36.1204 31.2245 36.1202Z" fill="black"/>
<path d="M31.2079 36.1313C31.2073 36.1317 31.2071 36.1318 31.2079 36.1313V36.1313Z" fill="black"/>
<path d="M31.2088 36.1315L31.2097 36.1309H31.2094L31.2088 36.1315Z" fill="black"/>
</g>
<defs>
<clipPath id="clip0">
<rect width="100" height="100" rx="24" fill="white"/>
</clipPath>
</defs>
</svg>
