<svg width="29" height="29" viewBox="0 0 29 29" fill="none" xmlns="http://www.w3.org/2000/svg">
<path d="M14.4996 0C8.61307 0 3.82351 4.78956 3.82351 10.6766C3.82351 12.2122 4.13781 13.6783 4.75721 15.0347C7.42651 20.8757 12.5443 27.0427 14.0496 28.7934C14.1624 28.9243 14.3268 28.9997 14.4999 28.9997C14.6729 28.9997 14.8373 28.9243 14.9501 28.7934C16.4548 27.043 21.5726 20.8763 24.2428 15.0347C24.8625 13.6783 25.1765 12.2122 25.1765 10.6766C25.1759 4.78956 20.3863 0 14.4996 0ZM14.4996 16.2221C11.4418 16.2221 8.95378 13.7341 8.95378 10.6763C8.95378 7.61824 11.4418 5.13027 14.4996 5.13027C17.5574 5.13027 20.0453 7.61824 20.0453 10.6763C20.0456 13.7341 17.5577 16.2221 14.4996 16.2221Z" fill="#383838"/>
</svg>
